<?xml version="1.0" encoding="UTF-8" standalone="no"?>
<svg width="20px" height="20px" viewBox="0 0 20 20" version="1.1" xmlns="http://www.w3.org/2000/svg" xmlns:xlink="http://www.w3.org/1999/xlink">
    <!-- Generator: Sketch 41.2 (35397) - http://www.bohemiancoding.com/sketch -->
    <title>Dribbble</title>
    <desc>Created with Sketch.</desc>
    <defs></defs>
    <g id="Page-1" stroke="none" stroke-width="1" fill="none" fill-rule="evenodd">
        <g id="SIGNATURE" transform="translate(-397.000000, -29.000000)" fill="#FFFFFF">
            <g id="Group" transform="translate(387.000000, 19.000000)">
                <path d="M28.5675949,16.428 C28.3362025,15.8845 28.0470886,15.361 27.7118987,14.8715 C27.3807595,14.386 26.9989873,13.929 26.5797468,13.515 C26.1589873,13.1 25.6972152,12.724 25.2050633,12.396 C24.7093671,12.064 24.1787342,11.7805 23.6283544,11.5495 C23.0668354,11.317 22.4794937,11.1355 21.8835443,11.016 C21.2718987,10.892 20.643038,10.8285 20.0141772,10.8285 C19.3843038,10.8285 18.755443,10.892 18.1437975,11.016 C17.5473418,11.1355 16.96,11.317 16.3989873,11.5495 C15.8486076,11.7805 15.3179747,12.064 14.8212658,12.396 C14.3296203,12.724 13.8678481,13.1 13.4475949,13.515 C13.0283544,13.929 12.6470886,14.386 12.315443,14.8715 C11.9802532,15.361 11.6906329,15.8845 11.4592405,16.428 C11.2212658,16.982 11.0389873,17.5635 10.9164557,18.152 C10.7924051,18.7545 10.7291139,19.3755 10.7291139,19.9965 C10.7291139,20.62 10.7924051,21.2405 10.9164557,21.8445 C11.0389873,22.433 11.2212658,23.013 11.4592405,23.566 C11.6906329,24.1095 11.9802532,24.6355 12.315443,25.125 C12.6470886,25.61 13.0283544,26.065 13.4475949,26.4815 C13.8678481,26.8955 14.3296203,27.2705 14.8212658,27.5995 C15.3179747,27.9305 15.8486076,28.215 16.3989873,28.4445 C16.96,28.6795 17.5473418,28.8585 18.1437975,28.978 C18.755443,29.103 19.3843038,29.166 20.0141772,29.166 C20.643038,29.166 21.2718987,29.103 21.8835443,28.978 C22.4794937,28.8585 23.0668354,28.6795 23.6283544,28.4445 C24.1787342,28.215 24.7093671,27.9305 25.2050633,27.5995 C25.6972152,27.2705 26.1589873,26.8955 26.5797468,26.4815 C26.9989873,26.065 27.3807595,25.61 27.7118987,25.125 C28.0470886,24.6355 28.3362025,24.1095 28.5675949,23.566 C28.804557,23.013 28.9883544,22.433 29.1103797,21.8445 C29.2349367,21.2405 29.2982278,20.62 29.2982278,19.9965 C29.2982278,19.3755 29.2349367,18.7545 29.1103797,18.152 C28.9883544,17.5635 28.804557,16.982 28.5675949,16.428 L28.5675949,16.428 Z M20.0141772,12.1675 C22.0207595,12.1675 23.8541772,12.907 25.2506329,14.122 C25.2308861,14.151 24.1022785,15.849 21.1083544,16.9565 C19.7529114,14.4975 18.2637975,12.5435 18.1448101,12.3885 C18.7443038,12.245 19.3701266,12.1675 20.0141772,12.1675 L20.0141772,12.1675 Z M18.1144304,12.395 C18.1144304,12.396 18.1129114,12.397 18.1129114,12.397 C18.1129114,12.397 18.1032911,12.399 18.0891139,12.4015 C18.0977215,12.399 18.1053165,12.398 18.1144304,12.395 L18.1144304,12.395 Z M16.6303797,12.9165 C16.7362025,13.056 18.2025316,15.019 19.5751899,17.4275 C15.7675949,18.427 12.4627848,18.387 12.2541772,18.384 C12.7686076,15.958 14.4182278,13.9475 16.6303797,12.9165 L16.6303797,12.9165 Z M14.1159494,25.2295 C12.8526582,23.842 12.0840506,22.0085 12.0840506,19.9965 C12.0840506,19.9135 12.0881013,19.8315 12.0906329,19.7495 C12.2313924,19.753 16.1488608,19.8405 20.2313924,18.634 C20.4587342,19.0725 20.6759494,19.52 20.8744304,19.9655 C20.7696203,19.9935 20.6658228,20.0245 20.5620253,20.059 C16.283038,21.424 14.1124051,25.2255 14.1124051,25.2255 C14.1124051,25.2255 14.1159494,25.2285 14.1159494,25.2295 L14.1159494,25.2295 Z M20.0141772,27.828 C18.1412658,27.828 16.4212658,27.185 15.0637975,26.1125 C15.035443,26.0905 15.0020253,26.065 14.9620253,26.033 C15.0020253,26.065 15.035443,26.0905 15.0637975,26.1125 C15.1098734,26.148 15.1397468,26.1695 15.1397468,26.1695 C15.1397468,26.1695 16.6597468,22.8965 21.3625316,21.2785 C21.3802532,21.272 21.398481,21.2675 21.4162025,21.2625 C22.5316456,24.1245 22.9918987,26.5225 23.1093671,27.207 C22.158481,27.606 21.1113924,27.828 20.0141772,27.828 L20.0141772,27.828 Z M24.4450633,26.491 C24.3640506,26.019 23.9412658,23.7205 22.9007595,20.899 C25.4612658,20.4945 27.6789873,21.188 27.843038,21.2405 C27.4901266,23.423 26.2248101,25.304 24.4450633,26.491 L24.4450633,26.491 Z M22.4182278,19.6625 C22.361519,19.5285 22.3058228,19.394 22.2470886,19.259 C22.0820253,18.8755 21.9043038,18.496 21.7194937,18.123 C24.8511392,16.8605 26.1220253,15.046 26.1372152,15.0245 C27.2486076,16.358 27.9225316,18.0615 27.9412658,19.919 C27.8263291,19.894 25.1427848,19.324 22.4182278,19.6625 L22.4182278,19.6625 Z" id="Dribbble"></path>
            </g>
        </g>
    </g>
</svg>