<?xml version="1.0" encoding="UTF-8" standalone="no"?>
<svg width="19px" height="19px" viewBox="0 0 19 19" version="1.1" xmlns="http://www.w3.org/2000/svg" xmlns:xlink="http://www.w3.org/1999/xlink">
    <!-- Generator: Sketch 41.2 (35397) - http://www.bohemiancoding.com/sketch -->
    <title>Fill 4</title>
    <desc>Created with Sketch.</desc>
    <defs></defs>
    <g id="Page-1" stroke="none" stroke-width="1" fill="none" fill-rule="evenodd">
        <g id="SIGNATURE" transform="translate(-615.000000, -29.000000)" fill="#FFFFFF">
            <path d="M624.285077,29 C619.157743,29 615,33.2093921 615,38.4021589 C615,42.556279 617.660457,46.0806095 621.349702,47.3238406 C621.813741,47.4108745 621.984103,47.1198791 621.984103,46.8715442 C621.984103,46.6473423 621.975493,45.9066973 621.971495,45.1210562 C619.388378,45.689813 618.84331,44.0117235 618.84331,44.0117235 C618.420939,42.9249667 617.812369,42.6359953 617.812369,42.6359953 C616.969934,42.0524473 617.875871,42.0644359 617.875871,42.0644359 C618.808253,42.1307623 619.299199,43.033331 619.299199,43.033331 C620.127334,44.4707148 621.471324,44.0551626 622.00117,43.814924 C622.084507,43.2072432 622.325136,42.7924696 622.590675,42.5576803 C620.528332,42.3199328 618.360359,41.5137398 618.360359,37.9110943 C618.360359,36.8845918 618.723072,36.0458585 619.317035,35.3874209 C619.220629,35.1506075 618.902814,34.1943238 619.406983,32.899246 C619.406983,32.899246 620.186684,32.6465517 621.96104,33.8630031 C622.701687,33.6546821 623.495996,33.5502102 624.285077,33.5466292 C625.074158,33.5502102 625.869081,33.6546821 626.611112,33.8630031 C628.383315,32.6465517 629.161941,32.899246 629.161941,32.899246 C629.66734,34.1943238 629.34937,35.1506075 629.252965,35.3874209 C629.848312,36.0458585 630.208565,36.8845918 630.208565,37.9110943 C630.208565,41.5223031 628.03644,42.3174416 625.968869,42.5502069 C626.301907,42.8419808 626.598658,43.414163 626.598658,44.2913532 C626.598658,45.5493754 626.587895,46.5618653 626.587895,46.8715442 C626.587895,47.1217474 626.755029,47.4149226 627.225679,47.322595 C630.912925,46.0779627 633.57,42.5548777 633.57,38.4021589 C633.57,33.2093921 629.412872,29 624.285077,29" id="Fill-4"></path>
        </g>
    </g>
</svg>