<?xml version="1.0" encoding="utf-8"?>
<!-- Generator: Adobe Illustrator 16.0.0, SVG Export Plug-In . SVG Version: 6.00 Build 0)  -->
<!DOCTYPE svg PUBLIC "-//W3C//DTD SVG 1.1//EN" "http://www.w3.org/Graphics/SVG/1.1/DTD/svg11.dtd">
<svg version="1.1" id="Layer_1" xmlns="http://www.w3.org/2000/svg" xmlns:xlink="http://www.w3.org/1999/xlink" x="0px" y="0px"
	 width="716px" height="417.2px" viewBox="0 0 716 417.2" enable-background="new 0 0 716 417.2" xml:space="preserve">
<rect x="295.9" y="15.6" fill="#FFFFFF" stroke="#468967" stroke-width="3" stroke-miterlimit="10" width="101.9" height="149.6"/>
<rect x="162.1" y="283.5" fill="#FFFFFF" stroke="#FBAF3C" stroke-width="2" stroke-miterlimit="10" width="80.5" height="118.1"/>
<rect x="266.4" y="283.5" fill="#FFFFFF" stroke="#FBAF3C" stroke-width="2" stroke-miterlimit="10" width="80.5" height="118.1"/>
<rect x="367.1" y="283.5" fill="#FFFFFF" stroke="#FBAF3C" stroke-width="2" stroke-miterlimit="10" width="80.5" height="118.1"/>
<rect x="471.5" y="283.5" fill="#FFFFFF" stroke="#FBAF3C" stroke-width="2" stroke-miterlimit="10" width="80.5" height="118.1"/>
<g>
	<g>
		<line fill="none" stroke="#969696" stroke-miterlimit="10" x1="411.9" y1="177.2" x2="482.5" y2="249.5"/>
		<g>
			<path fill="#969696" d="M474.3,248c0.1-0.3,0.3-0.4,0.6-0.4l7.4,1.7l-1.6-7.5c-0.1-0.3,0.1-0.5,0.4-0.6c0.3-0.1,0.5,0.1,0.6,0.4
				l1.7,8.3c0,0.2,0,0.3-0.1,0.5s-0.3,0.2-0.5,0.1l-8.2-1.9c-0.1,0-0.2-0.1-0.2-0.1C474.3,248.3,474.3,248.1,474.3,248z"/>
		</g>
	</g>
</g>
<g>
	<g>
		<line fill="none" stroke="#969696" stroke-miterlimit="10" x1="284.3" y1="182.6" x2="213.6" y2="254.9"/>
		<g>
			<path fill="#969696" d="M214.9,246.7c0.3,0.1,0.4,0.3,0.4,0.6l-1.6,7.5l7.4-1.7c0.3-0.1,0.5,0.1,0.6,0.4s-0.1,0.5-0.4,0.6
				l-8.2,1.9c-0.2,0-0.3,0-0.5-0.1s-0.2-0.3-0.1-0.5l1.7-8.3c0-0.1,0.1-0.2,0.1-0.2C214.6,246.7,214.8,246.6,214.9,246.7z"/>
		</g>
	</g>
</g>
<g>
	<g>
		<line fill="none" stroke="#969696" stroke-miterlimit="10" x1="317.6" y1="182.8" x2="302.9" y2="260.9"/>
		<g>
			<path fill="#969696" d="M299.5,253.3c0.3-0.1,0.5,0,0.7,0.3l2.8,7.1l5.2-5.6c0.2-0.2,0.5-0.2,0.7,0c0.2,0.2,0.2,0.5,0,0.7
				l-5.8,6.2c-0.1,0.1-0.3,0.2-0.5,0.1s-0.3-0.1-0.4-0.3l-3.1-7.8c0-0.1,0-0.2,0-0.3C299.2,253.5,299.3,253.4,299.5,253.3z"/>
		</g>
	</g>
</g>
<g>
	<g>
		<line fill="none" stroke="#969696" stroke-miterlimit="10" x1="382.9" y1="182.8" x2="397.6" y2="260.9"/>
		<g>
			<path fill="#969696" d="M391.6,255.1c0.2-0.2,0.5-0.2,0.7,0l5.2,5.6l2.8-7.1c0.1-0.3,0.4-0.4,0.7-0.3s0.4,0.4,0.3,0.7l-3.1,7.8
				c-0.1,0.2-0.2,0.3-0.4,0.3s-0.3,0-0.5-0.1l-5.8-6.2c-0.1-0.1-0.1-0.2-0.1-0.2C391.4,255.4,391.5,255.2,391.6,255.1z"/>
		</g>
	</g>
</g>
<g>
	<path fill="#8C8C8C" d="M316.9,76.5v17.4H313V76.5H316.9z"/>
	<path fill="#8C8C8C" d="M320.3,93.9V76.5h4.6l3.6,6.4c1,1.8,2.1,4,2.8,6h0.1c-0.3-2.3-0.3-4.6-0.3-7.3v-5.1h3.6v17.4h-4.1l-3.7-6.7
		c-1-1.9-2.2-4.1-3-6.1l-0.1,0c0.1,2.3,0.2,4.7,0.2,7.6v5.2H320.3z"/>
	<path fill="#8C8C8C" d="M338.1,76.7c1.4-0.2,3.3-0.4,5.3-0.4c3.3,0,5.4,0.6,7.1,1.9c1.8,1.3,2.9,3.5,2.9,6.6c0,3.3-1.2,5.6-2.9,7
		c-1.8,1.5-4.6,2.2-8,2.2c-2,0-3.5-0.1-4.5-0.3V76.7z M342.1,90.9c0.3,0.1,0.9,0.1,1.4,0.1c3.6,0,5.9-1.9,5.9-6.1
		c0-3.6-2.1-5.5-5.5-5.5c-0.9,0-1.4,0.1-1.8,0.2V90.9z"/>
	<path fill="#8C8C8C" d="M366.4,86.5H360v4.1h7.1v3.2h-11.1V76.5h10.7v3.2H360v3.6h6.4V86.5z"/>
	<path fill="#8C8C8C" d="M379,93.9l-1.6-3.1c-0.6-1.2-1.1-2.1-1.5-3.1h-0.1c-0.4,1-0.8,1.9-1.3,3.1l-1.4,3.1h-4.5l5-8.8l-4.9-8.6
		h4.5l1.5,3.2c0.5,1.1,0.9,1.9,1.3,2.9h0.1c0.4-1.1,0.7-1.9,1.2-2.9l1.5-3.2h4.5l-4.9,8.5l5.2,8.9H379z"/>
</g>
<g>
	<path fill="#8C8C8C" d="M179.9,339.2h-2.9v-2h8.2v2h-2.9v8.7h-2.4V339.2z"/>
	<path fill="#8C8C8C" d="M187.1,344.7c0.1,1,1.1,1.5,2.2,1.5c0.8,0,1.5-0.1,2.1-0.3l0.3,1.6c-0.8,0.3-1.8,0.5-2.8,0.5
		c-2.6,0-4.1-1.5-4.1-4c0-2,1.2-4.1,3.9-4.1c2.5,0,3.5,2,3.5,3.9c0,0.4,0,0.8-0.1,1H187.1z M189.9,343.1c0-0.6-0.3-1.6-1.4-1.6
		c-1,0-1.4,0.9-1.5,1.6H189.9z"/>
	<path fill="#8C8C8C" d="M198,347.9l-0.1-0.8h0c-0.5,0.6-1.3,1-2.2,1c-1.6,0-2.5-1.1-2.5-2.4c0-2,1.8-3,4.6-3v-0.1
		c0-0.4-0.2-1-1.4-1c-0.8,0-1.6,0.3-2.1,0.6l-0.4-1.6c0.5-0.3,1.6-0.7,3-0.7c2.6,0,3.4,1.5,3.4,3.3v2.7c0,0.7,0,1.5,0.1,1.9H198z
		 M197.7,344.2c-1.3,0-2.3,0.3-2.3,1.2c0,0.6,0.4,0.9,1,0.9c0.6,0,1.1-0.4,1.3-0.9c0-0.1,0-0.3,0-0.4V344.2z"/>
	<path fill="#8C8C8C" d="M202,342.6c0-1,0-1.8-0.1-2.5h2l0.1,1h0c0.3-0.5,1-1.2,2.3-1.2c1,0,1.8,0.5,2.1,1.3h0
		c0.3-0.4,0.6-0.7,1-0.9c0.4-0.3,0.9-0.4,1.5-0.4c1.5,0,2.6,1,2.6,3.4v4.6h-2.3v-4.2c0-1.1-0.4-1.8-1.1-1.8c-0.6,0-1,0.4-1.1,0.8
		c-0.1,0.2-0.1,0.4-0.1,0.6v4.5h-2.3v-4.3c0-1-0.3-1.6-1.1-1.6c-0.6,0-1,0.5-1.1,0.9c-0.1,0.2-0.1,0.4-0.1,0.6v4.5H202V342.6z"/>
	<path fill="#8C8C8C" d="M221.4,345.1l-0.8,2.7h-2.5l3.3-10.7h3.2l3.3,10.7h-2.6l-0.8-2.7H221.4z M224.1,343.3l-0.7-2.3
		c-0.2-0.6-0.4-1.4-0.5-2.1h0c-0.2,0.6-0.3,1.4-0.5,2.1l-0.6,2.3H224.1z"/>
</g>
<g>
	<path fill="#8C8C8C" d="M286.3,339.2h-2.9v-2h8.2v2h-2.9v8.7h-2.4V339.2z"/>
	<path fill="#8C8C8C" d="M293.4,344.7c0.1,1,1.1,1.5,2.2,1.5c0.8,0,1.5-0.1,2.1-0.3l0.3,1.6c-0.8,0.3-1.8,0.5-2.8,0.5
		c-2.6,0-4.1-1.5-4.1-4c0-2,1.2-4.1,3.9-4.1c2.5,0,3.5,2,3.5,3.9c0,0.4,0,0.8-0.1,1H293.4z M296.2,343.1c0-0.6-0.3-1.6-1.4-1.6
		c-1,0-1.4,0.9-1.5,1.6H296.2z"/>
	<path fill="#8C8C8C" d="M304.3,347.9l-0.1-0.8h0c-0.5,0.6-1.3,1-2.2,1c-1.6,0-2.5-1.1-2.5-2.4c0-2,1.8-3,4.6-3v-0.1
		c0-0.4-0.2-1-1.4-1c-0.8,0-1.6,0.3-2.1,0.6l-0.4-1.6c0.5-0.3,1.6-0.7,3-0.7c2.6,0,3.4,1.5,3.4,3.3v2.7c0,0.7,0,1.5,0.1,1.9H304.3z
		 M304,344.2c-1.3,0-2.3,0.3-2.3,1.2c0,0.6,0.4,0.9,1,0.9c0.6,0,1.1-0.4,1.3-0.9c0-0.1,0-0.3,0-0.4V344.2z"/>
	<path fill="#8C8C8C" d="M308.3,342.6c0-1,0-1.8-0.1-2.5h2l0.1,1h0c0.3-0.5,1-1.2,2.3-1.2c1,0,1.8,0.5,2.1,1.3h0
		c0.3-0.4,0.6-0.7,1-0.9c0.4-0.3,0.9-0.4,1.5-0.4c1.5,0,2.6,1,2.6,3.4v4.6h-2.3v-4.2c0-1.1-0.4-1.8-1.1-1.8c-0.6,0-1,0.4-1.1,0.8
		c-0.1,0.2-0.1,0.4-0.1,0.6v4.5H313v-4.3c0-1-0.3-1.6-1.1-1.6c-0.6,0-1,0.5-1.1,0.9c-0.1,0.2-0.1,0.4-0.1,0.6v4.5h-2.3V342.6z"/>
	<path fill="#8C8C8C" d="M325.2,337.3c0.6-0.1,1.9-0.2,3.1-0.2c1.5,0,2.4,0.1,3.2,0.6c0.7,0.4,1.3,1.1,1.3,2.1c0,1-0.6,1.8-1.8,2.3
		v0c1.2,0.3,2.1,1.3,2.1,2.6c0,1-0.4,1.7-1.1,2.3c-0.8,0.6-2.1,1-4.2,1c-1.2,0-2.1-0.1-2.6-0.2V337.3z M327.6,341.4h0.8
		c1.3,0,2-0.5,2-1.3c0-0.8-0.6-1.2-1.7-1.2c-0.5,0-0.8,0-1,0.1V341.4z M327.6,346.1c0.2,0,0.5,0,0.9,0c1.1,0,2.1-0.4,2.1-1.5
		c0-1.1-1-1.5-2.2-1.5h-0.8V346.1z"/>
</g>
<g>
	<path fill="#8C8C8C" d="M386.1,339.2h-2.9v-2h8.2v2h-2.9v8.7h-2.4V339.2z"/>
	<path fill="#8C8C8C" d="M393.2,344.7c0.1,1,1.1,1.5,2.2,1.5c0.8,0,1.5-0.1,2.1-0.3l0.3,1.6c-0.8,0.3-1.8,0.5-2.8,0.5
		c-2.6,0-4.1-1.5-4.1-4c0-2,1.2-4.1,3.9-4.1c2.5,0,3.5,2,3.5,3.9c0,0.4,0,0.8-0.1,1H393.2z M396,343.1c0-0.6-0.3-1.6-1.4-1.6
		c-1,0-1.4,0.9-1.5,1.6H396z"/>
	<path fill="#8C8C8C" d="M404.1,347.9l-0.1-0.8h0c-0.5,0.6-1.3,1-2.2,1c-1.6,0-2.5-1.1-2.5-2.4c0-2,1.8-3,4.6-3v-0.1
		c0-0.4-0.2-1-1.4-1c-0.8,0-1.6,0.3-2.1,0.6l-0.4-1.6c0.5-0.3,1.6-0.7,3-0.7c2.6,0,3.4,1.5,3.4,3.3v2.7c0,0.7,0,1.5,0.1,1.9H404.1z
		 M403.8,344.2c-1.3,0-2.3,0.3-2.3,1.2c0,0.6,0.4,0.9,1,0.9c0.6,0,1.1-0.4,1.3-0.9c0-0.1,0-0.3,0-0.4V344.2z"/>
	<path fill="#8C8C8C" d="M408.1,342.6c0-1,0-1.8-0.1-2.5h2l0.1,1h0c0.3-0.5,1-1.2,2.3-1.2c1,0,1.8,0.5,2.1,1.3h0
		c0.3-0.4,0.6-0.7,1-0.9c0.4-0.3,0.9-0.4,1.5-0.4c1.5,0,2.6,1,2.6,3.4v4.6h-2.3v-4.2c0-1.1-0.4-1.8-1.1-1.8c-0.6,0-1,0.4-1.1,0.8
		c-0.1,0.2-0.1,0.4-0.1,0.6v4.5h-2.3v-4.3c0-1-0.3-1.6-1.1-1.6c-0.6,0-1,0.5-1.1,0.9c-0.1,0.2-0.1,0.4-0.1,0.6v4.5h-2.3V342.6z"/>
	<path fill="#8C8C8C" d="M432.8,347.6c-0.4,0.2-1.4,0.5-2.7,0.5c-3.7,0-5.6-2.3-5.6-5.3c0-3.6,2.6-5.7,5.8-5.7
		c1.3,0,2.2,0.3,2.6,0.5l-0.5,1.9c-0.5-0.2-1.2-0.4-2-0.4c-1.9,0-3.4,1.2-3.4,3.5c0,2.1,1.3,3.5,3.4,3.5c0.7,0,1.5-0.2,2-0.3
		L432.8,347.6z"/>
</g>
<g>
	<path fill="#8C8C8C" d="M490.2,339.2h-2.9v-2h8.2v2h-2.9v8.7h-2.4V339.2z"/>
	<path fill="#8C8C8C" d="M497.3,344.7c0.1,1,1.1,1.5,2.2,1.5c0.8,0,1.5-0.1,2.1-0.3l0.3,1.6c-0.8,0.3-1.8,0.5-2.8,0.5
		c-2.6,0-4.1-1.5-4.1-4c0-2,1.2-4.1,3.9-4.1c2.5,0,3.5,2,3.5,3.9c0,0.4,0,0.8-0.1,1H497.3z M500.2,343.1c0-0.6-0.3-1.6-1.4-1.6
		c-1,0-1.4,0.9-1.5,1.6H500.2z"/>
	<path fill="#8C8C8C" d="M508.2,347.9l-0.1-0.8h0c-0.5,0.6-1.3,1-2.2,1c-1.6,0-2.5-1.1-2.5-2.4c0-2,1.8-3,4.6-3v-0.1
		c0-0.4-0.2-1-1.4-1c-0.8,0-1.6,0.3-2.1,0.6l-0.4-1.6c0.5-0.3,1.6-0.7,3-0.7c2.6,0,3.4,1.5,3.4,3.3v2.7c0,0.7,0,1.5,0.1,1.9H508.2z
		 M508,344.2c-1.3,0-2.3,0.3-2.3,1.2c0,0.6,0.4,0.9,1,0.9c0.6,0,1.1-0.4,1.3-0.9c0-0.1,0-0.3,0-0.4V344.2z"/>
	<path fill="#8C8C8C" d="M512.2,342.6c0-1,0-1.8-0.1-2.5h2l0.1,1h0c0.3-0.5,1-1.2,2.3-1.2c1,0,1.8,0.5,2.1,1.3h0
		c0.3-0.4,0.6-0.7,1-0.9c0.4-0.3,0.9-0.4,1.5-0.4c1.5,0,2.6,1,2.6,3.4v4.6h-2.3v-4.2c0-1.1-0.4-1.8-1.1-1.8c-0.6,0-1,0.4-1.1,0.8
		c-0.1,0.2-0.1,0.4-0.1,0.6v4.5h-2.3v-4.3c0-1-0.3-1.6-1.1-1.6c-0.6,0-1,0.5-1.1,0.9c-0.1,0.2-0.1,0.4-0.1,0.6v4.5h-2.3V342.6z"/>
	<path fill="#8C8C8C" d="M529.1,337.3c0.9-0.1,2-0.2,3.3-0.2c2,0,3.3,0.4,4.4,1.1c1.1,0.8,1.8,2.1,1.8,4c0,2-0.7,3.5-1.8,4.3
		c-1.1,0.9-2.8,1.4-4.9,1.4c-1.3,0-2.1-0.1-2.7-0.2V337.3z M531.6,346c0.2,0,0.5,0,0.8,0c2.2,0,3.6-1.2,3.6-3.7
		c0-2.2-1.3-3.4-3.4-3.4c-0.5,0-0.9,0-1.1,0.1V346z"/>
</g>
</svg>
