<?xml version="1.0" encoding="utf-8"?>
<!-- Generator: Adobe Illustrator 16.0.0, SVG Export Plug-In . SVG Version: 6.00 Build 0)  -->
<!DOCTYPE svg PUBLIC "-//W3C//DTD SVG 1.1//EN" "http://www.w3.org/Graphics/SVG/1.1/DTD/svg11.dtd">
<svg version="1.1" id="Layer_1" xmlns="http://www.w3.org/2000/svg" xmlns:xlink="http://www.w3.org/1999/xlink" x="0px" y="0px"
	 width="716px" height="562.1px" viewBox="0 -144.9 716 562.1" enable-background="new 0 -144.9 716 562.1" xml:space="preserve">
<rect x="295.9" y="15.6" fill="#FFFFFF" stroke="#468967" stroke-width="3" stroke-miterlimit="10" width="101.9" height="149.6"/>
<rect x="162.1" y="283.5" fill="#FFFFFF" stroke="#FBAF3C" stroke-width="2" stroke-miterlimit="10" width="80.5" height="118.1"/>
<rect x="266.4" y="283.5" fill="#FFFFFF" stroke="#FBAF3C" stroke-width="2" stroke-miterlimit="10" width="80.5" height="118.1"/>
<rect x="367.1" y="283.5" fill="#FFFFFF" stroke="#FBAF3C" stroke-width="2" stroke-miterlimit="10" width="80.5" height="118.1"/>
<rect x="471.5" y="283.5" fill="#FFFFFF" stroke="#FBAF3C" stroke-width="2" stroke-miterlimit="10" width="80.5" height="118.1"/>
<g>
	<g>
		<line fill="none" stroke="#969696" stroke-miterlimit="10" x1="411.9" y1="177.2" x2="482.5" y2="249.5"/>
		<g>
			<path fill="#969696" d="M474.3,248c0.101-0.301,0.3-0.4,0.601-0.4l7.399,1.699l-1.6-7.5c-0.101-0.299,0.1-0.5,0.399-0.6
				c0.301-0.1,0.5,0.1,0.601,0.4l1.7,8.3c0,0.2,0,0.3-0.101,0.5c-0.1,0.2-0.3,0.2-0.5,0.101l-8.2-1.9c-0.1,0-0.199-0.1-0.199-0.1
				C474.3,248.299,474.3,248.1,474.3,248z"/>
		</g>
	</g>
</g>
<g>
	<g>
		<line fill="none" stroke="#969696" stroke-miterlimit="10" x1="284.3" y1="182.6" x2="213.6" y2="254.9"/>
		<g>
			<path fill="#969696" d="M214.9,246.7c0.3,0.1,0.4,0.301,0.4,0.6l-1.6,7.5l7.4-1.699c0.3-0.1,0.5,0.1,0.6,0.4
				c0.1,0.299-0.1,0.5-0.4,0.6l-8.2,1.9c-0.2,0-0.3,0-0.5-0.101c-0.2-0.101-0.2-0.3-0.1-0.5l1.7-8.3c0-0.1,0.1-0.2,0.1-0.2
				C214.6,246.7,214.8,246.6,214.9,246.7z"/>
		</g>
	</g>
</g>
<g>
	<g>
		<line fill="none" stroke="#969696" stroke-miterlimit="10" x1="317.6" y1="182.8" x2="302.9" y2="260.9"/>
		<g>
			<path fill="#969696" d="M299.5,253.299c0.3-0.1,0.5,0,0.7,0.301l2.8,7.1l5.2-5.6c0.2-0.2,0.5-0.2,0.7,0
				c0.2,0.199,0.2,0.5,0,0.699L303.1,262c-0.1,0.1-0.3,0.199-0.5,0.1c-0.2-0.1-0.3-0.1-0.4-0.301L299.1,254c0-0.101,0-0.201,0-0.301
				C299.2,253.5,299.3,253.4,299.5,253.299z"/>
		</g>
	</g>
</g>
<g>
	<g>
		<line fill="none" stroke="#969696" stroke-miterlimit="10" x1="382.9" y1="182.8" x2="397.6" y2="260.9"/>
		<g>
			<path fill="#969696" d="M391.6,255.1c0.2-0.2,0.5-0.2,0.7,0l5.2,5.6l2.8-7.1c0.101-0.301,0.4-0.4,0.7-0.301
				c0.3,0.101,0.4,0.4,0.3,0.701l-3.1,7.799C398.1,262,398,262.1,397.8,262.1s-0.3,0-0.5-0.1l-5.8-6.201
				c-0.1-0.1-0.1-0.199-0.1-0.199C391.4,255.4,391.5,255.2,391.6,255.1z"/>
		</g>
	</g>
</g>
<g>
	<path fill="#8C8C8C" d="M179.9,339.2H177v-2h8.2v2h-2.9v8.701h-2.4V339.2L179.9,339.2z"/>
	<path fill="#8C8C8C" d="M187.1,344.7c0.1,1,1.1,1.5,2.2,1.5c0.8,0,1.5-0.1,2.1-0.299l0.3,1.6c-0.8,0.299-1.8,0.5-2.8,0.5
		c-2.6,0-4.1-1.5-4.1-4c0-2,1.2-4.1,3.9-4.1c2.5,0,3.5,2,3.5,3.898c0,0.4,0,0.801-0.1,1h-5V344.7z M189.9,343.1
		c0-0.6-0.3-1.6-1.4-1.6c-1,0-1.4,0.9-1.5,1.6H189.9z"/>
	<path fill="#8C8C8C" d="M198,347.901l-0.1-0.801l0,0c-0.5,0.6-1.3,1-2.2,1c-1.6,0-2.5-1.1-2.5-2.4c0-2,1.8-3,4.6-3v-0.1
		c0-0.4-0.2-1-1.4-1c-0.8,0-1.6,0.301-2.1,0.6l-0.4-1.6c0.5-0.301,1.6-0.699,3-0.699c2.6,0,3.4,1.5,3.4,3.299v2.701
		c0,0.699,0,1.5,0.1,1.898H198V347.901z M197.7,344.2c-1.3,0-2.3,0.301-2.3,1.201c0,0.6,0.4,0.898,1,0.898s1.1-0.398,1.3-0.898
		c0-0.102,0-0.301,0-0.4V344.2z"/>
	<path fill="#8C8C8C" d="M202,342.6c0-1,0-1.801-0.1-2.5h2l0.1,1l0,0c0.3-0.5,1-1.199,2.3-1.199c1,0,1.8,0.5,2.1,1.299l0,0
		c0.3-0.4,0.6-0.699,1-0.9c0.4-0.299,0.9-0.398,1.5-0.398c1.5,0,2.6,1,2.6,3.398v4.602h-2.3V343.7c0-1.1-0.4-1.799-1.1-1.799
		c-0.6,0-1,0.398-1.1,0.799c-0.1,0.201-0.1,0.4-0.1,0.6v4.5h-2.3V343.5c0-1-0.3-1.6-1.1-1.6c-0.6,0-1,0.5-1.1,0.898
		c-0.1,0.201-0.1,0.4-0.1,0.602v4.5H202V342.6z"/>
	<path fill="#8C8C8C" d="M221.4,345.1l-0.8,2.699h-2.5l3.3-10.699h3.2l3.3,10.699h-2.6l-0.8-2.699H221.4z M224.1,343.299L223.4,341
		c-0.2-0.6-0.4-1.4-0.5-2.1l0,0c-0.2,0.6-0.3,1.398-0.5,2.1l-0.6,2.299H224.1z"/>
</g>
<g>
	<path fill="#8C8C8C" d="M286.3,339.2h-2.9v-2h8.2v2h-2.9v8.701h-2.4V339.2L286.3,339.2z"/>
	<path fill="#8C8C8C" d="M293.4,344.7c0.1,1,1.1,1.5,2.2,1.5c0.8,0,1.5-0.1,2.1-0.299l0.3,1.6c-0.8,0.299-1.8,0.5-2.8,0.5
		c-2.6,0-4.1-1.5-4.1-4c0-2,1.2-4.1,3.9-4.1c2.5,0,3.5,2,3.5,3.898c0,0.4,0,0.801-0.1,1h-5V344.7z M296.2,343.1
		c0-0.6-0.3-1.6-1.4-1.6c-1,0-1.4,0.9-1.5,1.6H296.2z"/>
	<path fill="#8C8C8C" d="M304.3,347.901l-0.1-0.801l0,0c-0.5,0.6-1.3,1-2.2,1c-1.6,0-2.5-1.1-2.5-2.4c0-2,1.8-3,4.6-3v-0.1
		c0-0.4-0.2-1-1.4-1c-0.8,0-1.6,0.301-2.1,0.6l-0.4-1.6c0.5-0.301,1.6-0.699,3-0.699c2.6,0,3.4,1.5,3.4,3.299v2.701
		c0,0.699,0,1.5,0.1,1.898h-2.4V347.901z M304,344.2c-1.3,0-2.3,0.301-2.3,1.201c0,0.6,0.4,0.898,1,0.898c0.6,0,1.1-0.398,1.3-0.898
		c0-0.102,0-0.301,0-0.4V344.2z"/>
	<path fill="#8C8C8C" d="M308.3,342.6c0-1,0-1.801-0.1-2.5h2l0.1,1l0,0c0.3-0.5,1-1.199,2.3-1.199c1,0,1.8,0.5,2.1,1.299l0,0
		c0.3-0.4,0.6-0.699,1-0.9c0.4-0.299,0.9-0.398,1.5-0.398c1.5,0,2.6,1,2.6,3.398v4.602h-2.3V343.7c0-1.1-0.4-1.799-1.1-1.799
		c-0.6,0-1,0.398-1.1,0.799c-0.1,0.201-0.1,0.4-0.1,0.6v4.5H313V343.5c0-1-0.3-1.6-1.1-1.6c-0.6,0-1,0.5-1.1,0.898
		c-0.1,0.201-0.1,0.4-0.1,0.602v4.5h-2.3V342.6H308.3z"/>
	<path fill="#8C8C8C" d="M325.2,337.299c0.6-0.1,1.9-0.199,3.1-0.199c1.5,0,2.4,0.1,3.2,0.6c0.7,0.4,1.3,1.1,1.3,2.1
		s-0.6,1.801-1.8,2.301l0,0c1.2,0.301,2.1,1.301,2.1,2.6c0,1-0.4,1.701-1.1,2.301c-0.8,0.6-2.1,1-4.2,1c-1.2,0-2.1-0.1-2.6-0.201
		V337.299z M327.6,341.401h0.8c1.3,0,2-0.5,2-1.301s-0.6-1.199-1.7-1.199c-0.5,0-0.8,0-1,0.1v2.4H327.6z M327.6,346.1
		c0.2,0,0.5,0,0.9,0c1.1,0,2.1-0.4,2.1-1.5s-1-1.5-2.2-1.5h-0.8V346.1z"/>
</g>
<g>
	<path fill="#8C8C8C" d="M386.1,339.2H383.2v-2h8.2v2h-2.9v8.701h-2.4V339.2L386.1,339.2z"/>
	<path fill="#8C8C8C" d="M393.2,344.7c0.1,1,1.1,1.5,2.2,1.5c0.8,0,1.5-0.1,2.1-0.299l0.3,1.6c-0.8,0.299-1.8,0.5-2.8,0.5
		c-2.6,0-4.1-1.5-4.1-4c0-2,1.199-4.1,3.899-4.1c2.5,0,3.5,2,3.5,3.898c0,0.4,0,0.801-0.1,1h-5V344.7z M396,343.1
		c0-0.6-0.3-1.6-1.4-1.6c-1,0-1.399,0.9-1.5,1.6H396z"/>
	<path fill="#8C8C8C" d="M404.1,347.901L404,347.1l0,0c-0.5,0.6-1.3,1-2.2,1c-1.6,0-2.5-1.1-2.5-2.4c0-2,1.8-3,4.601-3v-0.1
		c0-0.4-0.2-1-1.4-1c-0.8,0-1.6,0.301-2.1,0.6l-0.4-1.6c0.5-0.301,1.6-0.699,3-0.699c2.6,0,3.4,1.5,3.4,3.299v2.701
		c0,0.699,0,1.5,0.1,1.898h-2.4V347.901z M403.8,344.2c-1.3,0-2.3,0.301-2.3,1.201c0,0.6,0.4,0.898,1,0.898s1.1-0.398,1.3-0.898
		c0-0.102,0-0.301,0-0.4V344.2z"/>
	<path fill="#8C8C8C" d="M408.1,342.6c0-1,0-1.801-0.1-2.5h2l0.1,1l0,0c0.301-0.5,1-1.199,2.301-1.199c1,0,1.8,0.5,2.1,1.299l0,0
		c0.3-0.4,0.6-0.699,1-0.9c0.4-0.299,0.9-0.398,1.5-0.398c1.5,0,2.6,1,2.6,3.398v4.602h-2.3V343.7c0-1.1-0.399-1.799-1.1-1.799
		c-0.601,0-1,0.398-1.101,0.799c-0.1,0.201-0.1,0.4-0.1,0.6v4.5h-2.3V343.5c0-1-0.3-1.6-1.101-1.6c-0.6,0-1,0.5-1.1,0.898
		c-0.1,0.201-0.1,0.4-0.1,0.602v4.5H408.1V342.6z"/>
	<path fill="#8C8C8C" d="M432.8,347.6c-0.399,0.199-1.399,0.5-2.7,0.5c-3.699,0-5.6-2.301-5.6-5.301c0-3.6,2.6-5.699,5.8-5.699
		c1.3,0,2.2,0.301,2.601,0.5l-0.5,1.9c-0.5-0.201-1.2-0.4-2-0.4c-1.9,0-3.4,1.199-3.4,3.5c0,2.1,1.3,3.5,3.4,3.5
		c0.699,0,1.5-0.199,2-0.301L432.8,347.6z"/>
</g>
<g>
	<path fill="#8C8C8C" d="M490.2,339.2h-2.9v-2h8.2v2h-2.9v8.701H490.2V339.2L490.2,339.2z"/>
	<path fill="#8C8C8C" d="M497.3,344.7c0.101,1,1.101,1.5,2.2,1.5c0.8,0,1.5-0.1,2.1-0.299l0.301,1.6
		c-0.801,0.299-1.801,0.5-2.801,0.5c-2.6,0-4.1-1.5-4.1-4c0-2,1.2-4.1,3.9-4.1c2.5,0,3.5,2,3.5,3.898c0,0.4,0,0.801-0.101,1h-5
		V344.7z M500.2,343.1c0-0.6-0.3-1.6-1.4-1.6c-1,0-1.399,0.9-1.5,1.6H500.2z"/>
	<path fill="#8C8C8C" d="M508.2,347.901L508.1,347.1l0,0c-0.5,0.6-1.3,1-2.199,1c-1.601,0-2.5-1.1-2.5-2.4c0-2,1.8-3,4.6-3v-0.1
		c0-0.4-0.2-1-1.4-1c-0.8,0-1.6,0.301-2.1,0.6l-0.4-1.6c0.5-0.301,1.601-0.699,3-0.699c2.601,0,3.4,1.5,3.4,3.299v2.701
		c0,0.699,0,1.5,0.1,1.898H508.2V347.901z M508,344.2c-1.3,0-2.3,0.301-2.3,1.201c0,0.6,0.399,0.898,1,0.898
		c0.6,0,1.1-0.398,1.3-0.898c0-0.102,0-0.301,0-0.4V344.2z"/>
	<path fill="#8C8C8C" d="M512.2,342.6c0-1,0-1.801-0.101-2.5h2l0.101,1l0,0c0.3-0.5,1-1.199,2.3-1.199c1,0,1.8,0.5,2.1,1.299l0,0
		c0.301-0.4,0.601-0.699,1-0.9c0.4-0.299,0.9-0.398,1.5-0.398c1.5,0,2.601,1,2.601,3.398v4.602h-2.3V343.7
		c0-1.1-0.4-1.799-1.101-1.799c-0.6,0-1,0.398-1.1,0.799c-0.101,0.201-0.101,0.4-0.101,0.6v4.5h-2.3V343.5c0-1-0.3-1.6-1.1-1.6
		c-0.601,0-1,0.5-1.101,0.898c-0.1,0.201-0.1,0.4-0.1,0.602v4.5h-2.3V342.6L512.2,342.6z"/>
	<path fill="#8C8C8C" d="M529.1,337.299c0.9-0.1,2-0.199,3.301-0.199c2,0,3.3,0.4,4.399,1.1c1.101,0.801,1.8,2.1,1.8,4
		c0,2-0.699,3.5-1.8,4.301c-1.1,0.9-2.8,1.4-4.899,1.4c-1.301,0-2.101-0.102-2.7-0.201v-10.4H529.1z M531.6,346c0.2,0,0.5,0,0.801,0
		c2.199,0,3.6-1.201,3.6-3.701c0-2.199-1.3-3.398-3.4-3.398c-0.5,0-0.899,0-1.1,0.1v7H531.6z"/>
</g>
<g>
	<g>
		<line fill="none" stroke="#969696" stroke-miterlimit="10" x1="272.091" y1="-73.35" x2="301.867" y2="0.333"/>
		<g>
			<path fill="#969696" d="M294.903-4.231c0.199-0.246,0.421-0.27,0.752-0.125l6.188,4.466l1.356-7.521
				c0.06-0.276,0.313-0.438,0.589-0.377c0.276,0.06,0.438,0.313,0.377,0.589l-1.535,8.351c-0.031,0.138-0.146,0.33-0.367,0.354
				c-0.222,0.024-0.307,0.079-0.499-0.037l-6.819-4.893c-0.055-0.084-0.109-0.169-0.163-0.253
				C294.759-3.9,294.789-4.039,294.903-4.231z"/>
		</g>
	</g>
</g>
<g>
	<g>
		<line fill="none" stroke="#969696" stroke-miterlimit="10" x1="313.932" y1="-76.159" x2="328.631" y2="1.941"/>
		<g>
			<path fill="#969696" d="M322.631-3.858c0.201-0.2,0.5-0.2,0.701,0l5.199,5.6l2.801-7.1c0.1-0.301,0.4-0.4,0.699-0.301
				c0.301,0.101,0.4,0.4,0.301,0.701l-3.1,7.799c-0.102,0.201-0.201,0.301-0.4,0.301c-0.201,0-0.301,0-0.5-0.1l-5.801-6.201
				c-0.1-0.1-0.1-0.199-0.1-0.199C322.432-3.559,322.531-3.759,322.631-3.858z"/>
		</g>
	</g>
</g>
<text transform="matrix(1 0 0 1 317.6001 90.4004)" fill="#8C8C8C" font-family="'MyriadPro-Bold'" font-size="24">VIEW</text>
<g>
	
		<rect x="341.394" y="-125.219" fill="none" stroke="#BF6328" stroke-width="2" stroke-miterlimit="10" width="32.365" height="39.698"/>
	
		<line fill="none" stroke="#BF6328" stroke-width="2" stroke-miterlimit="10" x1="346.565" y1="-116.397" x2="369.402" y2="-116.397"/>
	
		<line fill="none" stroke="#BF6328" stroke-width="2" stroke-miterlimit="10" x1="346.699" y1="-110.333" x2="369.537" y2="-110.333"/>
	
		<line fill="none" stroke="#BF6328" stroke-width="2" stroke-miterlimit="10" x1="346.632" y1="-104.819" x2="369.47" y2="-104.819"/>
	
		<line fill="none" stroke="#BF6328" stroke-width="2" stroke-miterlimit="10" x1="346.765" y1="-98.754" x2="369.603" y2="-98.754"/>
	
		<line fill="none" stroke="#BF6328" stroke-width="2" stroke-miterlimit="10" x1="346.708" y1="-93.792" x2="369.545" y2="-93.792"/>
</g>
<g>
	
		<rect x="298.6" y="-125.55" fill="none" stroke="#BF6328" stroke-width="2" stroke-miterlimit="10" width="32.366" height="39.699"/>
	
		<line fill="none" stroke="#BF6328" stroke-width="2" stroke-miterlimit="10" x1="303.772" y1="-116.729" x2="326.61" y2="-116.729"/>
	
		<line fill="none" stroke="#BF6328" stroke-width="2" stroke-miterlimit="10" x1="303.905" y1="-110.663" x2="326.743" y2="-110.663"/>
	
		<line fill="none" stroke="#BF6328" stroke-width="2" stroke-miterlimit="10" x1="303.839" y1="-105.149" x2="326.677" y2="-105.149"/>
	
		<line fill="none" stroke="#BF6328" stroke-width="2" stroke-miterlimit="10" x1="303.973" y1="-99.084" x2="326.811" y2="-99.084"/>
	
		<line fill="none" stroke="#BF6328" stroke-width="2" stroke-miterlimit="10" x1="303.916" y1="-94.122" x2="326.753" y2="-94.122"/>
</g>
<g>
	
		<rect x="255.769" y="-124.999" fill="none" stroke="#BF6328" stroke-width="2" stroke-miterlimit="10" width="32.366" height="39.699"/>
	
		<line fill="none" stroke="#BF6328" stroke-width="2" stroke-miterlimit="10" x1="260.941" y1="-116.177" x2="283.779" y2="-116.177"/>
	
		<line fill="none" stroke="#BF6328" stroke-width="2" stroke-miterlimit="10" x1="261.074" y1="-110.112" x2="283.912" y2="-110.112"/>
	
		<line fill="none" stroke="#BF6328" stroke-width="2" stroke-miterlimit="10" x1="261.007" y1="-104.598" x2="283.845" y2="-104.598"/>
	
		<line fill="none" stroke="#BF6328" stroke-width="2" stroke-miterlimit="10" x1="261.141" y1="-98.533" x2="283.979" y2="-98.533"/>
	
		<line fill="none" stroke="#BF6328" stroke-width="2" stroke-miterlimit="10" x1="261.084" y1="-93.571" x2="283.922" y2="-93.571"/>
</g>
<g>
	
		<rect x="384.272" y="-125.219" fill="none" stroke="#BF6328" stroke-width="2" stroke-miterlimit="10" width="32.365" height="39.698"/>
	
		<line fill="none" stroke="#BF6328" stroke-width="2" stroke-miterlimit="10" x1="389.444" y1="-116.397" x2="412.282" y2="-116.397"/>
	
		<line fill="none" stroke="#BF6328" stroke-width="2" stroke-miterlimit="10" x1="389.577" y1="-110.333" x2="412.414" y2="-110.333"/>
	
		<line fill="none" stroke="#BF6328" stroke-width="2" stroke-miterlimit="10" x1="389.511" y1="-104.819" x2="412.349" y2="-104.819"/>
	
		<line fill="none" stroke="#BF6328" stroke-width="2" stroke-miterlimit="10" x1="389.645" y1="-98.754" x2="412.481" y2="-98.754"/>
	
		<line fill="none" stroke="#BF6328" stroke-width="2" stroke-miterlimit="10" x1="389.588" y1="-93.792" x2="412.425" y2="-93.792"/>
</g>
<g>
	<g>
		<line fill="none" stroke="#969696" stroke-miterlimit="10" x1="345.42" y1="1.941" x2="360.119" y2="-76.159"/>
		<g>
			<path fill="#969696" d="M351.619-3.358c0,0,0,0.1-0.1,0.199l-5.801,6.201c-0.199,0.1-0.299,0.1-0.5,0.1
				c-0.199,0-0.299-0.1-0.4-0.301l-3.1-7.799c-0.1-0.301,0-0.601,0.301-0.701c0.299-0.1,0.6,0,0.699,0.301l2.801,7.1l5.199-5.6
				c0.201-0.2,0.5-0.2,0.701,0C351.52-3.759,351.619-3.559,351.619-3.358z"/>
		</g>
	</g>
</g>
<g>
	<g>
		<line fill="none" stroke="#969696" stroke-miterlimit="10" x1="375.912" y1="-0.271" x2="405.688" y2="-73.953"/>
		<g>
			<path fill="#969696" d="M382.997-4.281c-0.054,0.083-0.108,0.168-0.163,0.253l-6.818,4.893c-0.192,0.116-0.277,0.062-0.499,0.037
				c-0.222-0.024-0.337-0.216-0.367-0.354l-1.535-8.351c-0.062-0.276,0.101-0.529,0.377-0.589c0.276-0.061,0.528,0.102,0.589,0.377
				l1.355,7.521l6.189-4.466c0.33-0.145,0.553-0.121,0.752,0.125C382.99-4.642,383.02-4.503,382.997-4.281z"/>
		</g>
	</g>
</g>
</svg>
