<?xml version="1.0" encoding="utf-8"?>
<!-- Generator: Adobe Illustrator 16.0.0, SVG Export Plug-In . SVG Version: 6.00 Build 0)  -->
<!DOCTYPE svg PUBLIC "-//W3C//DTD SVG 1.1//EN" "http://www.w3.org/Graphics/SVG/1.1/DTD/svg11.dtd">
<svg version="1.1" id="Layer_1" xmlns="http://www.w3.org/2000/svg" xmlns:xlink="http://www.w3.org/1999/xlink" x="0px" y="0px"
	 width="331.3px" height="224px" viewBox="0 0 331.3 224" enable-background="new 0 0 331.3 224" xml:space="preserve">
<g>
	<g>
		<g>
			<rect x="246.1" y="8.9" fill="#27A8E0" width="30.101" height="22.4"/>
			<g>
				<path fill="#27A8E0" d="M106.5,120.7l95.8,20.399C191,194,139,227.7,86.1,216.5s-86.6-63.2-75.4-116.1
					c9.6-45.3,49.4-77.5,95.8-77.5V120.7z"/>
			</g>
		</g>
		<g>
			<rect x="246.1" y="42.4" fill="#DFDFDF" width="30.101" height="22.4"/>
			<g>
				<path fill="#DFDFDF" d="M106.5,120.7V22.8c54.1,0,97.9,43.8,97.9,97.9c0,7.7-0.5,12.8-2.1,20.399L106.5,120.7z"/>
			</g>
		</g>
		<g>
			<rect x="246.1" y="76" width="30.101" height="22.4"/>
		</g>
	</g>
	<g>
		<text transform="matrix(1 0 0 1 280.0063 24.2793)" fill="#29323C" font-family="'MyriadPro-Regular'" font-size="11.3006">Just </text>
		<text transform="matrix(1 0 0 1 301.0063 24.2793)" fill="#29323C" font-family="'MyriadPro-Regular'" font-size="11.3006">R</text>
		<text transform="matrix(1 0 0 1 307.2065 24.2793)" fill="#29323C" font-family="'MyriadPro-Regular'" font-size="11.3006">ig</text>
		<text transform="matrix(1 0 0 1 316.2065 24.2793)" fill="#29323C" font-family="'MyriadPro-Regular'" font-size="11.3006">h</text>
		<text transform="matrix(1 0 0 1 322.4058 24.2793)" fill="#29323C" font-family="'MyriadPro-Regular'" font-size="11.3006">t</text>
		<text transform="matrix(1 0 0 1 280.0063 57.8428)" fill="#29323C" font-family="'MyriadPro-Regular'" font-size="11.3006">T</text>
		<text transform="matrix(1 0 0 1 284.8062 57.8428)" fill="#29323C" font-family="'MyriadPro-Regular'" font-size="11.3006">oo </text>
		<text transform="matrix(1 0 0 1 299.6069 57.8428)" fill="#29323C" font-family="'MyriadPro-Regular'" font-size="11.3006">L</text>
		<text transform="matrix(1 0 0 1 304.8062 57.8428)" fill="#29323C" font-family="'MyriadPro-Regular'" font-size="11.3006">ong</text>
		<text transform="matrix(1 0 0 1 280.0063 91.4062)" fill="#29323C" font-family="'MyriadPro-Regular'" font-size="11.3006">T</text>
		<text transform="matrix(1 0 0 1 284.8062 91.4062)" fill="#29323C" font-family="'MyriadPro-Regular'" font-size="11.3006">oo Sho</text>
		<text transform="matrix(1 0 0 1 317.7065 91.4062)" fill="#29323C" font-family="'MyriadPro-Regular'" font-size="11.3006">r</text>
		<text transform="matrix(1 0 0 1 321.6069 91.4062)" fill="#29323C" font-family="'MyriadPro-Regular'" font-size="11.3006">t</text>
	</g>
</g>
<circle fill="#FFFFFF" cx="104.9" cy="121" r="51.7"/>
<text transform="matrix(1 0 0 1 72 134.9229)" fill="#27A8E0" font-family="'MyriadPro-Regular'" font-size="37.3984">72%</text>
</svg>
