<?xml version="1.0" encoding="utf-8"?>
<!-- Generator: Adobe Illustrator 16.0.0, SVG Export Plug-In . SVG Version: 6.00 Build 0)  -->
<!DOCTYPE svg PUBLIC "-//W3C//DTD SVG 1.1//EN" "http://www.w3.org/Graphics/SVG/1.1/DTD/svg11.dtd">
<svg version="1.1" id="Layer_1" xmlns="http://www.w3.org/2000/svg" xmlns:xlink="http://www.w3.org/1999/xlink" x="0px" y="0px"
	 width="109px" height="108.667px" viewBox="70.834 2.5 109 108.667" enable-background="new 70.834 2.5 109 108.667"
	 xml:space="preserve">
<g>
	<circle fill="#004960" cx="82.8" cy="14.4" r="8.64"/>
</g>
<circle fill="#004960" cx="111.6" cy="14.4" r="8.64"/>
<g>
	<circle fill="#004960" cx="169.2" cy="14.4" r="8.64"/>
</g>
<path fill="#20B584" d="M82.8,35.712c4.147,0,7.488,3.341,7.488,7.488c0,4.147-3.341,7.488-7.488,7.488
	c-4.147,0-7.488-3.341-7.488-7.488C75.312,39.053,78.653,35.712,82.8,35.712 M82.8,34.56c-4.723,0-8.64,3.917-8.64,8.64
	c0,4.723,3.917,8.64,8.64,8.64c4.724,0,8.64-3.917,8.64-8.64C91.44,38.477,87.523,34.56,82.8,34.56L82.8,34.56z"/>
<g>
	<circle fill="#004960" cx="111.6" cy="43.2" r="8.64"/>
</g>
<path fill="#20B584" d="M140.4,35.712c4.146,0,7.488,3.341,7.488,7.488c0,4.147-3.342,7.488-7.488,7.488
	c-4.147,0-7.488-3.341-7.488-7.488C132.912,39.053,136.253,35.712,140.4,35.712 M140.4,34.56c-4.724,0-8.641,3.917-8.641,8.64
	c0,4.723,3.917,8.64,8.641,8.64c4.723,0,8.64-3.917,8.64-8.64C149.04,38.477,145.123,34.56,140.4,34.56L140.4,34.56z"/>
<path fill="#20B584" d="M169.2,35.712c4.147,0,7.487,3.341,7.487,7.488c0,4.147-3.34,7.488-7.487,7.488s-7.488-3.341-7.488-7.488
	C161.712,39.053,165.053,35.712,169.2,35.712 M169.2,34.56c-4.724,0-8.64,3.917-8.64,8.64c0,4.723,3.916,8.64,8.64,8.64
	s8.64-3.917,8.64-8.64C177.84,38.477,173.924,34.56,169.2,34.56L169.2,34.56z"/>
<path fill="#20B584" d="M82.8,64.512c4.147,0,7.488,3.34,7.488,7.488c0,4.146-3.341,7.488-7.488,7.488
	c-4.147,0-7.488-3.342-7.488-7.488C75.312,67.853,78.653,64.512,82.8,64.512 M82.8,63.36c-4.723,0-8.64,3.802-8.64,8.64
	c0,4.723,3.917,8.641,8.64,8.641c4.724,0,8.64-3.918,8.64-8.641C91.44,67.162,87.523,63.36,82.8,63.36L82.8,63.36z"/>
<path fill="#20B584" d="M111.6,64.512c4.147,0,7.488,3.34,7.488,7.488c0,4.146-3.341,7.488-7.488,7.488
	c-4.147,0-7.488-3.342-7.488-7.488C104.112,67.853,107.453,64.512,111.6,64.512 M111.6,63.36c-4.723,0-8.64,3.917-8.64,8.64
	c0,4.723,3.917,8.641,8.64,8.641s8.64-3.918,8.64-8.641C120.24,67.162,116.323,63.36,111.6,63.36L111.6,63.36z"/>
<g>
	<circle fill="#004960" cx="140.4" cy="72" r="8.64"/>
</g>
<circle fill="#004960" cx="169.2" cy="72" r="8.64"/>
<g>
	<circle fill="#004960" cx="111.6" cy="100.8" r="8.64"/>
</g>
<path fill="#20B584" d="M140.4,93.312c4.146,0,7.488,3.34,7.488,7.487s-3.342,7.488-7.488,7.488c-4.147,0-7.488-3.341-7.488-7.488
	S136.253,93.312,140.4,93.312 M140.4,92.16c-4.724,0-8.641,3.916-8.641,8.64s3.917,8.64,8.641,8.64c4.723,0,8.64-3.916,8.64-8.64
	S145.123,92.16,140.4,92.16L140.4,92.16z"/>
<circle fill="#004960" cx="169.2" cy="100.8" r="8.64"/>
<path fill="#004960" d="M169.775,102.183L140.4,72.807l-28.34,28.339l-0.806-0.806L139.594,72l-28.57-28.57V14.976H82.8v-1.152
	h29.376V42.97l28.455,28.454h29.145V102.183z M141.782,72.576l26.842,26.842V72.576H141.782z"/>
</svg>
