<?xml version="1.0" encoding="UTF-8" standalone="no"?>
<svg width="507px" height="106px" viewBox="0 0 507 106" version="1.1" xmlns="http://www.w3.org/2000/svg" xmlns:xlink="http://www.w3.org/1999/xlink">
    <!-- Generator: Sketch 40.3 (33839) - http://www.bohemiancoding.com/sketch -->
    <title>Group 5</title>
    <desc>Created with Sketch.</desc>
    <defs>
        <path d="M28.5484626,51.9943126 C28.5484626,47.5791757 32.1255046,44 36.5464505,44 L469.002012,44 C473.419179,44 477,47.57869 477,51.9943126 L477,98.0056874 C477,102.420824 473.414325,106 469.002043,106 L301.477033,106 L36.5505012,106 C32.1310973,106 28.5484626,102.42131 28.5484626,98.0056874 L28.5484626,51.9943126 Z" id="path-1"></path>
        <mask id="mask-2" maskContentUnits="userSpaceOnUse" maskUnits="objectBoundingBox" x="0" y="0" width="448.451537" height="62" fill="white">
            <use xlink:href="#path-1"></use>
        </mask>
    </defs>
    <g id="Page-1" stroke="none" stroke-width="1" fill="none" fill-rule="evenodd">
        <g id="Reasearch-diagram" transform="translate(-5.000000, -4.000000)">
            <g id="Group-5" transform="translate(5.000000, 4.000000)">
                <g id="Group-4">
                    <g id="Group-3">
                        <g id="Group-2">
                            <g id="Group">
                                <use id="Rectangle" stroke="#1FC4D0" mask="url(#mask-2)" stroke-width="4" xlink:href="#path-1"></use>
                                <rect id="Rectangle-2" fill="#FFFFFF" x="9" y="40" width="466" height="36"></rect>
                                <polygon id="Line" fill="#00BCCA" points="469.83359 49 470.83359 47 36.5 47 35.5 49"></polygon>
                                <path d="M3.3046875,9 L2.09765625,9 L2.09765625,5.6953125 L2.109375,5.15234375 L2.12890625,4.55859375 C1.92838441,4.75911559 1.78906289,4.89062469 1.7109375,4.953125 L1.0546875,5.48046875 L0.47265625,4.75390625 L2.3125,3.2890625 L3.3046875,3.2890625 L3.3046875,9 Z M5.87746805,8.44140625 C5.87746805,8.22265516 5.93606121,8.05729223 6.0532493,7.9453125 C6.17043739,7.83333277 6.3410086,7.77734375 6.56496805,7.77734375 C6.78111496,7.77734375 6.948431,7.83463484 7.06692117,7.94921875 C7.18541135,8.06380266 7.24465555,8.22786352 7.24465555,8.44140625 C7.24465555,8.64713645 7.18476032,8.8092442 7.06496805,8.92773438 C6.94517578,9.04622455 6.77851078,9.10546875 6.56496805,9.10546875 C6.34621696,9.10546875 6.17694782,9.04752662 6.05715555,8.93164062 C5.93736328,8.81575463 5.87746805,8.6523448 5.87746805,8.44140625 L5.87746805,8.44140625 Z M17.3902166,6.13671875 C17.3902166,7.08203598 17.155844,7.80859121 16.6870916,8.31640625 C16.2183393,8.82422129 15.546471,9.078125 14.6714666,9.078125 C13.7964623,9.078125 13.124594,8.82422129 12.6558416,8.31640625 C12.1870893,7.80859121 11.9527166,7.07943184 11.9527166,6.12890625 C11.9527166,5.17838066 12.1877403,4.45247646 12.6577948,3.95117188 C13.1278492,3.44986729 13.8016706,3.19921875 14.6792791,3.19921875 C15.5568877,3.19921875 16.2281049,3.45182039 16.692951,3.95703125 C17.1577971,4.46224211 17.3902166,5.18879734 17.3902166,6.13671875 L17.3902166,6.13671875 Z M13.2222479,6.13671875 C13.2222479,6.77474277 13.3433404,7.25520672 13.5855291,7.578125 C13.8277179,7.90104328 14.1896934,8.0625 14.6714666,8.0625 C15.6376173,8.0625 16.1206854,7.42057934 16.1206854,6.13671875 C16.1206854,4.85025398 15.6402215,4.20703125 14.6792791,4.20703125 C14.1975059,4.20703125 13.8342283,4.369139 13.5894354,4.69335938 C13.3446425,5.01757975 13.2222479,5.49869473 13.2222479,6.13671875 L13.2222479,6.13671875 Z M19.4278409,3.2890625 L21.2051847,3.2890625 C22.0150846,3.2890625 22.6029693,3.40429572 22.9688566,3.63476562 C23.3347438,3.86523553 23.5176847,4.23176832 23.5176847,4.734375 C23.5176847,5.07552254 23.4376074,5.35546766 23.2774503,5.57421875 C23.1172933,5.79296984 22.9044048,5.92447895 22.6387784,5.96875 L22.6387784,6.0078125 C23.0007594,6.08854207 23.2618245,6.23958223 23.4219816,6.4609375 C23.5821386,6.68229277 23.6622159,6.97656066 23.6622159,7.34375 C23.6622159,7.86458594 23.4740668,8.27083187 23.0977628,8.5625 C22.7214589,8.85416813 22.2103963,9 21.5645597,9 L19.4278409,9 L19.4278409,3.2890625 Z M20.6387784,5.55078125 L21.3419034,5.55078125 C21.6700301,5.55078125 21.9076579,5.50000051 22.0547941,5.3984375 C22.2019302,5.29687449 22.2754972,5.12890742 22.2754972,4.89453125 C22.2754972,4.67578016 22.1954199,4.51888068 22.0352628,4.42382812 C21.8751058,4.32877557 21.6218531,4.28125 21.2754972,4.28125 L20.6387784,4.28125 L20.6387784,5.55078125 Z M20.6387784,6.51171875 L20.6387784,8 L21.4278409,8 C21.7611759,8 22.0072672,7.93619855 22.1661222,7.80859375 C22.3249772,7.68098895 22.4044034,7.4856784 22.4044034,7.22265625 C22.4044034,6.74869555 22.0658652,6.51171875 21.3887784,6.51171875 L20.6387784,6.51171875 Z M25.0592152,10.6796875 C24.7857764,10.6796875 24.5474975,10.651042 24.3443715,10.59375 L24.3443715,9.5859375 C24.5527059,9.63802109 24.7428081,9.6640625 24.914684,9.6640625 C25.1803103,9.6640625 25.3704126,9.58138104 25.4849965,9.41601562 C25.5995804,9.25065021 25.6568715,8.99218926 25.6568715,8.640625 L25.6568715,3.2890625 L26.867809,3.2890625 L26.867809,8.6328125 C26.867809,9.2994825 26.7154668,9.80728992 26.4107777,10.15625 C26.1060887,10.5052101 25.6555724,10.6796875 25.0592152,10.6796875 L25.0592152,10.6796875 Z M32.448402,9 L29.1593395,9 L29.1593395,3.2890625 L32.448402,3.2890625 L32.448402,4.28125 L30.370277,4.28125 L30.370277,5.53515625 L32.3038708,5.53515625 L32.3038708,6.52734375 L30.370277,6.52734375 L30.370277,8 L32.448402,8 L32.448402,9 Z M36.9196201,4.21484375 C36.4638887,4.21484375 36.1110276,4.386066 35.8610263,4.72851562 C35.6110251,5.07096525 35.4860263,5.54817402 35.4860263,6.16015625 C35.4860263,7.43360012 35.9638862,8.0703125 36.9196201,8.0703125 C37.3206638,8.0703125 37.806336,7.97005309 38.3766513,7.76953125 L38.3766513,8.78515625 C37.907899,8.98046973 37.3844667,9.078125 36.8063388,9.078125 C35.9756055,9.078125 35.3401952,8.82617439 34.9000888,8.32226562 C34.4599825,7.81835686 34.2399326,7.0950568 34.2399326,6.15234375 C34.2399326,5.55859078 34.3480044,5.03841369 34.5641513,4.59179688 C34.7802983,4.14518006 35.090842,3.80273557 35.495792,3.56445312 C35.9007419,3.32617068 36.3753465,3.20703125 36.9196201,3.20703125 C37.4743104,3.20703125 38.0315965,3.34114449 38.5914951,3.609375 L38.2008701,4.59375 C37.9873274,4.49218699 37.7724858,4.40364621 37.5563388,4.328125 C37.3401919,4.25260379 37.1279545,4.21484375 36.9196201,4.21484375 L36.9196201,4.21484375 Z M42.6486506,9 L41.4377131,9 L41.4377131,4.296875 L39.8869319,4.296875 L39.8869319,3.2890625 L44.1994319,3.2890625 L44.1994319,4.296875 L42.6486506,4.296875 L42.6486506,9 Z M45.9323687,9 L45.9323687,3.2890625 L47.1433062,3.2890625 L47.1433062,9 L45.9323687,9 Z M52.6926492,3.2890625 L53.9153055,3.2890625 L51.9738992,9 L50.6535867,9 L48.7160867,3.2890625 L49.938743,3.2890625 L51.0129617,6.6875 C51.0728579,6.88802184 51.1347062,7.12174346 51.1985086,7.38867188 C51.262311,7.65560029 51.3020242,7.84114531 51.3176492,7.9453125 C51.3462952,7.70572797 51.4439505,7.28646133 51.610618,6.6875 L52.6926492,3.2890625 Z M58.7771485,9 L55.488086,9 L55.488086,3.2890625 L58.7771485,3.2890625 L58.7771485,4.28125 L56.6990235,4.28125 L56.6990235,5.53515625 L58.6326173,5.53515625 L58.6326173,6.52734375 L56.6990235,6.52734375 L56.6990235,8 L58.7771485,8 L58.7771485,9 Z M64.1936791,7.4140625 C64.1936791,7.92969008 64.0081341,8.33593602 63.6370385,8.6328125 C63.2659429,8.92968898 62.749672,9.078125 62.0882103,9.078125 C61.4788323,9.078125 60.9397752,8.96354281 60.4710228,8.734375 L60.4710228,7.609375 C60.8564414,7.78125086 61.1826101,7.9023434 61.4495385,7.97265625 C61.7164669,8.0429691 61.9606051,8.078125 62.1819603,8.078125 C62.4475867,8.078125 62.6513607,8.02734426 62.7932885,7.92578125 C62.9352163,7.82421824 63.0061791,7.67317809 63.0061791,7.47265625 C63.0061791,7.36067652 62.9749294,7.26106814 62.9124291,7.17382812 C62.8499288,7.08658811 62.7581328,7.00260457 62.6370385,6.921875 C62.5159441,6.84114543 62.2692018,6.71224047 61.8968041,6.53515625 C61.547844,6.37109293 61.2861279,6.21354242 61.1116478,6.0625 C60.9371678,5.91145758 60.7978463,5.73567809 60.6936791,5.53515625 C60.5895119,5.33463441 60.5374291,5.10026176 60.5374291,4.83203125 C60.5374291,4.32682039 60.7086513,3.92968895 61.051101,3.640625 C61.3935506,3.35156105 61.8668532,3.20703125 62.4710228,3.20703125 C62.7678993,3.20703125 63.0510996,3.24218715 63.3206322,3.3125 C63.5901648,3.38281285 63.872063,3.4817702 64.1663353,3.609375 L63.7757103,4.55078125 C63.4710213,4.42578063 63.2190707,4.33854191 63.019851,4.2890625 C62.8206312,4.23958309 62.6246696,4.21484375 62.4319603,4.21484375 C62.2027925,4.21484375 62.027013,4.26822863 61.9046166,4.375 C61.7822201,4.48177137 61.7210228,4.62109289 61.7210228,4.79296875 C61.7210228,4.89974012 61.7457622,4.99283814 61.7952416,5.07226562 C61.844721,5.15169311 61.9234963,5.22851525 62.0315697,5.30273438 C62.1396432,5.3769535 62.3955,5.5104157 62.7991478,5.703125 C63.3330047,5.95833461 63.6988864,6.21419143 63.8968041,6.47070312 C64.0947218,6.72721482 64.1936791,7.0416648 64.1936791,7.4140625 L64.1936791,7.4140625 Z" id="1.-OBJECTIVES" fill="#4A4A4A"></path>
                                <circle id="Oval" fill="#00BCCA" cx="32" cy="48" r="18"></circle>
                                <path d="M118.3125,9 L114.320312,9 L114.320312,8.16015625 L115.753906,6.7109375 C116.178388,6.27603949 116.455729,5.97461021 116.585938,5.80664062 C116.716146,5.63867104 116.809896,5.48307363 116.867188,5.33984375 C116.924479,5.19661387 116.953125,5.04817785 116.953125,4.89453125 C116.953125,4.66536344 116.889975,4.49479223 116.763672,4.3828125 C116.637369,4.27083277 116.468751,4.21484375 116.257812,4.21484375 C116.036457,4.21484375 115.821616,4.26562449 115.613281,4.3671875 C115.404947,4.46875051 115.187501,4.61328031 114.960938,4.80078125 L114.304688,4.0234375 C114.585939,3.78385297 114.819009,3.61458383 115.003906,3.515625 C115.188803,3.41666617 115.390624,3.34049506 115.609375,3.28710938 C115.828126,3.23372369 116.072915,3.20703125 116.34375,3.20703125 C116.700523,3.20703125 117.015624,3.27213477 117.289062,3.40234375 C117.562501,3.53255273 117.774739,3.71484258 117.925781,3.94921875 C118.076824,4.18359492 118.152344,4.45182141 118.152344,4.75390625 C118.152344,5.0169284 118.10612,5.26367072 118.013672,5.49414062 C117.921223,5.72461053 117.777996,5.96093629 117.583984,6.203125 C117.389973,6.44531371 117.04818,6.79036234 116.558594,7.23828125 L115.824219,7.9296875 L115.824219,7.984375 L118.3125,7.984375 L118.3125,9 Z M119.877468,8.44140625 C119.877468,8.22265516 119.936061,8.05729223 120.053249,7.9453125 C120.170437,7.83333277 120.341009,7.77734375 120.564968,7.77734375 C120.781115,7.77734375 120.948431,7.83463484 121.066921,7.94921875 C121.185411,8.06380266 121.244656,8.22786352 121.244656,8.44140625 C121.244656,8.64713645 121.18476,8.8092442 121.064968,8.92773438 C120.945176,9.04622455 120.778511,9.10546875 120.564968,9.10546875 C120.346217,9.10546875 120.176948,9.04752662 120.057156,8.93164062 C119.937363,8.81575463 119.877468,8.6523448 119.877468,8.44140625 L119.877468,8.44140625 Z M130.88631,9 L129.679279,9 L129.679279,6.53515625 L127.41756,6.53515625 L127.41756,9 L126.206623,9 L126.206623,3.2890625 L127.41756,3.2890625 L127.41756,5.52734375 L129.679279,5.52734375 L129.679279,3.2890625 L130.88631,3.2890625 L130.88631,9 Z M134.959091,5.640625 L136.150497,3.2890625 L137.455185,3.2890625 L135.560653,6.77734375 L135.560653,9 L134.357528,9 L134.357528,6.81640625 L132.462997,3.2890625 L133.775497,3.2890625 L134.959091,5.640625 Z M140.238903,5.9765625 L140.63734,5.9765625 C141.009738,5.9765625 141.288381,5.90299553 141.473278,5.75585938 C141.658175,5.60872322 141.750621,5.39453266 141.750621,5.11328125 C141.750621,4.82942566 141.673148,4.61979234 141.5182,4.484375 C141.363251,4.34895766 141.120415,4.28125 140.789684,4.28125 L140.238903,4.28125 L140.238903,5.9765625 Z M142.973278,5.0703125 C142.973278,5.68489891 142.781222,6.15494629 142.397106,6.48046875 C142.012989,6.80599121 141.466771,6.96875 140.758434,6.96875 L140.238903,6.96875 L140.238903,9 L139.027965,9 L139.027965,3.2890625 L140.852184,3.2890625 C141.544896,3.2890625 142.071583,3.43814955 142.432262,3.73632812 C142.792941,4.0345067 142.973278,4.47916371 142.973278,5.0703125 L142.973278,5.0703125 Z M150.089027,6.13671875 C150.089027,7.08203598 149.854654,7.80859121 149.385902,8.31640625 C148.91715,8.82422129 148.245281,9.078125 147.370277,9.078125 C146.495273,9.078125 145.823404,8.82422129 145.354652,8.31640625 C144.8859,7.80859121 144.651527,7.07943184 144.651527,6.12890625 C144.651527,5.17838066 144.886551,4.45247646 145.356605,3.95117188 C145.82666,3.44986729 146.500481,3.19921875 147.37809,3.19921875 C148.255698,3.19921875 148.926915,3.45182039 149.391761,3.95703125 C149.856607,4.46224211 150.089027,5.18879734 150.089027,6.13671875 L150.089027,6.13671875 Z M145.921058,6.13671875 C145.921058,6.77474277 146.042151,7.25520672 146.28434,7.578125 C146.526528,7.90104328 146.888504,8.0625 147.370277,8.0625 C148.336428,8.0625 148.819496,7.42057934 148.819496,6.13671875 C148.819496,4.85025398 148.339032,4.20703125 147.37809,4.20703125 C146.896316,4.20703125 146.533039,4.369139 146.288246,4.69335938 C146.043453,5.01757975 145.921058,5.49869473 145.921058,6.13671875 L145.921058,6.13671875 Z M154.091495,9 L152.880558,9 L152.880558,4.296875 L151.329776,4.296875 L151.329776,3.2890625 L155.642276,3.2890625 L155.642276,4.296875 L154.091495,4.296875 L154.091495,9 Z M162.054901,9 L160.847869,9 L160.847869,6.53515625 L158.586151,6.53515625 L158.586151,9 L157.375213,9 L157.375213,3.2890625 L158.586151,3.2890625 L158.586151,5.52734375 L160.847869,5.52734375 L160.847869,3.2890625 L162.054901,3.2890625 L162.054901,9 Z M167.6394,9 L164.350337,9 L164.350337,3.2890625 L167.6394,3.2890625 L167.6394,4.28125 L165.561275,4.28125 L165.561275,5.53515625 L167.494869,5.53515625 L167.494869,6.52734375 L165.561275,6.52734375 L165.561275,8 L167.6394,8 L167.6394,9 Z M173.05593,7.4140625 C173.05593,7.92969008 172.870385,8.33593602 172.49929,8.6328125 C172.128194,8.92968898 171.611923,9.078125 170.950462,9.078125 C170.341084,9.078125 169.802027,8.96354281 169.333274,8.734375 L169.333274,7.609375 C169.718693,7.78125086 170.044861,7.9023434 170.31179,7.97265625 C170.578718,8.0429691 170.822856,8.078125 171.044212,8.078125 C171.309838,8.078125 171.513612,8.02734426 171.65554,7.92578125 C171.797468,7.82421824 171.86843,7.67317809 171.86843,7.47265625 C171.86843,7.36067652 171.837181,7.26106814 171.77468,7.17382812 C171.71218,7.08658811 171.620384,7.00260457 171.49929,6.921875 C171.378196,6.84114543 171.131453,6.71224047 170.759055,6.53515625 C170.410095,6.37109293 170.148379,6.21354242 169.973899,6.0625 C169.799419,5.91145758 169.660098,5.73567809 169.55593,5.53515625 C169.451763,5.33463441 169.39968,5.10026176 169.39968,4.83203125 C169.39968,4.32682039 169.570903,3.92968895 169.913352,3.640625 C170.255802,3.35156105 170.729105,3.20703125 171.333274,3.20703125 C171.630151,3.20703125 171.913351,3.24218715 172.182884,3.3125 C172.452416,3.38281285 172.734314,3.4817702 173.028587,3.609375 L172.637962,4.55078125 C172.333273,4.42578063 172.081322,4.33854191 171.882102,4.2890625 C171.682883,4.23958309 171.486921,4.21484375 171.294212,4.21484375 C171.065044,4.21484375 170.889264,4.26822863 170.766868,4.375 C170.644472,4.48177137 170.583274,4.62109289 170.583274,4.79296875 C170.583274,4.89974012 170.608014,4.99283814 170.657493,5.07226562 C170.706972,5.15169311 170.785748,5.22851525 170.893821,5.30273438 C171.001895,5.3769535 171.257751,5.5104157 171.661399,5.703125 C172.195256,5.95833461 172.561138,6.21419143 172.759055,6.47070312 C172.956973,6.72721482 173.05593,7.0416648 173.05593,7.4140625 L173.05593,7.4140625 Z M174.945117,9 L174.945117,3.2890625 L176.156055,3.2890625 L176.156055,9 L174.945117,9 Z M181.818679,7.4140625 C181.818679,7.92969008 181.633134,8.33593602 181.262038,8.6328125 C180.890943,8.92968898 180.374672,9.078125 179.71321,9.078125 C179.103832,9.078125 178.564775,8.96354281 178.096023,8.734375 L178.096023,7.609375 C178.481441,7.78125086 178.80761,7.9023434 179.074538,7.97265625 C179.341467,8.0429691 179.585605,8.078125 179.80696,8.078125 C180.072587,8.078125 180.276361,8.02734426 180.418288,7.92578125 C180.560216,7.82421824 180.631179,7.67317809 180.631179,7.47265625 C180.631179,7.36067652 180.599929,7.26106814 180.537429,7.17382812 C180.474929,7.08658811 180.383133,7.00260457 180.262038,6.921875 C180.140944,6.84114543 179.894202,6.71224047 179.521804,6.53515625 C179.172844,6.37109293 178.911128,6.21354242 178.736648,6.0625 C178.562168,5.91145758 178.422846,5.73567809 178.318679,5.53515625 C178.214512,5.33463441 178.162429,5.10026176 178.162429,4.83203125 C178.162429,4.32682039 178.333651,3.92968895 178.676101,3.640625 C179.018551,3.35156105 179.491853,3.20703125 180.096023,3.20703125 C180.392899,3.20703125 180.6761,3.24218715 180.945632,3.3125 C181.215165,3.38281285 181.497063,3.4817702 181.791335,3.609375 L181.40071,4.55078125 C181.096021,4.42578063 180.844071,4.33854191 180.644851,4.2890625 C180.445631,4.23958309 180.24967,4.21484375 180.05696,4.21484375 C179.827793,4.21484375 179.652013,4.26822863 179.529617,4.375 C179.40722,4.48177137 179.346023,4.62109289 179.346023,4.79296875 C179.346023,4.89974012 179.370762,4.99283814 179.420242,5.07226562 C179.469721,5.15169311 179.548496,5.22851525 179.65657,5.30273438 C179.764643,5.3769535 180.0205,5.5104157 180.424148,5.703125 C180.958005,5.95833461 181.323886,6.21419143 181.521804,6.47070312 C181.719722,6.72721482 181.818679,7.0416648 181.818679,7.4140625 L181.818679,7.4140625 Z" id="2.-HYPOTHESIS" fill="#4A4A4A"></path>
                                <circle id="Oval" fill="#00BCCA" cx="148" cy="48" r="18"></circle>
                                <path d="M235.089844,4.56640625 C235.089844,4.92317887 234.981772,5.22656125 234.765625,5.4765625 C234.549478,5.72656375 234.246096,5.89843703 233.855469,5.9921875 L233.855469,6.015625 C234.316409,6.07291695 234.665363,6.21288951 234.902344,6.43554688 C235.139324,6.65820424 235.257812,6.95833145 235.257812,7.3359375 C235.257812,7.88541941 235.058596,8.31314951 234.660156,8.61914062 C234.261717,8.92513174 233.692712,9.078125 232.953125,9.078125 C232.33333,9.078125 231.783857,8.97526145 231.304688,8.76953125 L231.304688,7.7421875 C231.526043,7.85416723 231.76953,7.94531215 232.035156,8.015625 C232.300783,8.08593785 232.563801,8.12109375 232.824219,8.12109375 C233.222658,8.12109375 233.516926,8.05338609 233.707031,7.91796875 C233.897136,7.78255141 233.992188,7.56510566 233.992188,7.265625 C233.992188,6.99739449 233.882814,6.80729223 233.664062,6.6953125 C233.445311,6.58333277 233.096357,6.52734375 232.617188,6.52734375 L232.183594,6.52734375 L232.183594,5.6015625 L232.625,5.6015625 C233.067711,5.6015625 233.391275,5.54362037 233.595703,5.42773438 C233.800131,5.31184838 233.902344,5.11328266 233.902344,4.83203125 C233.902344,4.39973742 233.631513,4.18359375 233.089844,4.18359375 C232.902343,4.18359375 232.71159,4.21484344 232.517578,4.27734375 C232.323567,4.33984406 232.108074,4.4479159 231.871094,4.6015625 L231.3125,3.76953125 C231.833336,3.39452937 232.454423,3.20703125 233.175781,3.20703125 C233.76693,3.20703125 234.233722,3.32682172 234.576172,3.56640625 C234.918622,3.80599078 235.089844,4.13932078 235.089844,4.56640625 L235.089844,4.56640625 Z M236.877468,8.44140625 C236.877468,8.22265516 236.936061,8.05729223 237.053249,7.9453125 C237.170437,7.83333277 237.341009,7.77734375 237.564968,7.77734375 C237.781115,7.77734375 237.948431,7.83463484 238.066921,7.94921875 C238.185411,8.06380266 238.244656,8.22786352 238.244656,8.44140625 C238.244656,8.64713645 238.18476,8.8092442 238.064968,8.92773438 C237.945176,9.04622455 237.778511,9.10546875 237.564968,9.10546875 C237.346217,9.10546875 237.176948,9.04752662 237.057156,8.93164062 C236.937363,8.81575463 236.877468,8.6523448 236.877468,8.44140625 L236.877468,8.44140625 Z M245.624592,9 L244.249592,4.51953125 L244.214435,4.51953125 C244.263915,5.43099414 244.288654,6.03906098 244.288654,6.34375 L244.288654,9 L243.206623,9 L243.206623,3.2890625 L244.85506,3.2890625 L246.206623,7.65625 L246.23006,7.65625 L247.663654,3.2890625 L249.312092,3.2890625 L249.312092,9 L248.183185,9 L248.183185,6.296875 C248.183185,6.1692702 248.185139,6.02213625 248.189045,5.85546875 C248.192951,5.68880125 248.210529,5.24609734 248.241779,4.52734375 L248.206623,4.52734375 L246.733967,9 L245.624592,9 Z M254.892685,9 L251.603622,9 L251.603622,3.2890625 L254.892685,3.2890625 L254.892685,4.28125 L252.81456,4.28125 L252.81456,5.53515625 L254.748153,5.53515625 L254.748153,6.52734375 L252.81456,6.52734375 L252.81456,8 L254.892685,8 L254.892685,9 Z M259.141246,9 L257.930309,9 L257.930309,4.296875 L256.379528,4.296875 L256.379528,3.2890625 L260.692028,3.2890625 L260.692028,4.296875 L259.141246,4.296875 L259.141246,9 Z M267.104652,9 L265.897621,9 L265.897621,6.53515625 L263.635902,6.53515625 L263.635902,9 L262.424965,9 L262.424965,3.2890625 L263.635902,3.2890625 L263.635902,5.52734375 L265.897621,5.52734375 L265.897621,3.2890625 L267.104652,3.2890625 L267.104652,9 Z M274.583683,6.13671875 C274.583683,7.08203598 274.34931,7.80859121 273.880558,8.31640625 C273.411805,8.82422129 272.739937,9.078125 271.864933,9.078125 C270.989928,9.078125 270.31806,8.82422129 269.849308,8.31640625 C269.380555,7.80859121 269.146183,7.07943184 269.146183,6.12890625 C269.146183,5.17838066 269.381206,4.45247646 269.851261,3.95117188 C270.321315,3.44986729 270.995137,3.19921875 271.872745,3.19921875 C272.750354,3.19921875 273.421571,3.45182039 273.886417,3.95703125 C274.351263,4.46224211 274.583683,5.18879734 274.583683,6.13671875 L274.583683,6.13671875 Z M270.415714,6.13671875 C270.415714,6.77474277 270.536806,7.25520672 270.778995,7.578125 C271.021184,7.90104328 271.383159,8.0625 271.864933,8.0625 C272.831083,8.0625 273.314151,7.42057934 273.314151,6.13671875 C273.314151,4.85025398 272.833687,4.20703125 271.872745,4.20703125 C271.390972,4.20703125 271.027694,4.369139 270.782901,4.69335938 C270.538108,5.01757975 270.415714,5.49869473 270.415714,6.13671875 L270.415714,6.13671875 Z M281.359588,6.08984375 C281.359588,7.02995262 281.092013,7.7499975 280.556854,8.25 C280.021695,8.7500025 279.248916,9 278.238494,9 L276.621307,9 L276.621307,3.2890625 L278.414276,3.2890625 C279.346572,3.2890625 280.070523,3.53515379 280.586151,4.02734375 C281.101778,4.51953371 281.359588,5.20702684 281.359588,6.08984375 L281.359588,6.08984375 Z M280.101776,6.12109375 C280.101776,4.89452512 279.560114,4.28125 278.476776,4.28125 L277.832244,4.28125 L277.832244,8 L278.351776,8 C279.518448,8 280.101776,7.37370418 280.101776,6.12109375 L280.101776,6.12109375 Z M286.768306,7.4140625 C286.768306,7.92969008 286.582761,8.33593602 286.211666,8.6328125 C285.84057,8.92968898 285.324299,9.078125 284.662837,9.078125 C284.053459,9.078125 283.514402,8.96354281 283.04565,8.734375 L283.04565,7.609375 C283.431069,7.78125086 283.757237,7.9023434 284.024166,7.97265625 C284.291094,8.0429691 284.535232,8.078125 284.756587,8.078125 C285.022214,8.078125 285.225988,8.02734426 285.367916,7.92578125 C285.509843,7.82421824 285.580806,7.67317809 285.580806,7.47265625 C285.580806,7.36067652 285.549557,7.26106814 285.487056,7.17382812 C285.424556,7.08658811 285.33276,7.00260457 285.211666,6.921875 C285.090571,6.84114543 284.843829,6.71224047 284.471431,6.53515625 C284.122471,6.37109293 283.860755,6.21354242 283.686275,6.0625 C283.511795,5.91145758 283.372473,5.73567809 283.268306,5.53515625 C283.164139,5.33463441 283.112056,5.10026176 283.112056,4.83203125 C283.112056,4.32682039 283.283278,3.92968895 283.625728,3.640625 C283.968178,3.35156105 284.44148,3.20703125 285.04565,3.20703125 C285.342526,3.20703125 285.625727,3.24218715 285.895259,3.3125 C286.164792,3.38281285 286.44669,3.4817702 286.740962,3.609375 L286.350337,4.55078125 C286.045648,4.42578063 285.793698,4.33854191 285.594478,4.2890625 C285.395258,4.23958309 285.199297,4.21484375 285.006587,4.21484375 C284.77742,4.21484375 284.60164,4.26822863 284.479244,4.375 C284.356847,4.48177137 284.29565,4.62109289 284.29565,4.79296875 C284.29565,4.89974012 284.320389,4.99283814 284.369869,5.07226562 C284.419348,5.15169311 284.498123,5.22851525 284.606197,5.30273438 C284.71427,5.3769535 284.970127,5.5104157 285.373775,5.703125 C285.907632,5.95833461 286.273514,6.21419143 286.471431,6.47070312 C286.669349,6.72721482 286.768306,7.0416648 286.768306,7.4140625 L286.768306,7.4140625 Z" id="3.-METHODS" fill="#4A4A4A"></path>
                                <circle id="Oval" fill="#00BCCA" cx="259" cy="48" r="18"></circle>
                                <path d="M341.441406,7.81640625 L340.753906,7.81640625 L340.753906,9 L339.574219,9 L339.574219,7.81640625 L337.136719,7.81640625 L337.136719,6.9765625 L339.640625,3.2890625 L340.753906,3.2890625 L340.753906,6.87890625 L341.441406,6.87890625 L341.441406,7.81640625 Z M339.574219,6.87890625 L339.574219,5.91015625 C339.574219,5.74869711 339.580729,5.51432445 339.59375,5.20703125 C339.606771,4.89973805 339.617187,4.72135441 339.625,4.671875 L339.59375,4.671875 C339.497395,4.88541773 339.381511,5.09374898 339.246094,5.296875 L338.199219,6.87890625 L339.574219,6.87890625 Z M342.877468,8.44140625 C342.877468,8.22265516 342.936061,8.05729223 343.053249,7.9453125 C343.170437,7.83333277 343.341009,7.77734375 343.564968,7.77734375 C343.781115,7.77734375 343.948431,7.83463484 344.066921,7.94921875 C344.185411,8.06380266 344.244656,8.22786352 344.244656,8.44140625 C344.244656,8.64713645 344.18476,8.8092442 344.064968,8.92773438 C343.945176,9.04622455 343.778511,9.10546875 343.564968,9.10546875 C343.346217,9.10546875 343.176948,9.04752662 343.057156,8.93164062 C342.937363,8.81575463 342.877468,8.6523448 342.877468,8.44140625 L342.877468,8.44140625 Z M351.632404,4.21484375 C351.176673,4.21484375 350.823812,4.386066 350.57381,4.72851562 C350.323809,5.07096525 350.19881,5.54817402 350.19881,6.16015625 C350.19881,7.43360012 350.67667,8.0703125 351.632404,8.0703125 C352.033448,8.0703125 352.51912,7.97005309 353.089435,7.76953125 L353.089435,8.78515625 C352.620683,8.98046973 352.097251,9.078125 351.519123,9.078125 C350.68839,9.078125 350.052979,8.82617439 349.612873,8.32226562 C349.172767,7.81835686 348.952717,7.0950568 348.952717,6.15234375 C348.952717,5.55859078 349.060788,5.03841369 349.276935,4.59179688 C349.493082,4.14518006 349.803626,3.80273557 350.208576,3.56445312 C350.613526,3.32617068 351.088131,3.20703125 351.632404,3.20703125 C352.187094,3.20703125 352.744381,3.34114449 353.304279,3.609375 L352.913654,4.59375 C352.700111,4.49218699 352.48527,4.40364621 352.269123,4.328125 C352.052976,4.25260379 351.840739,4.21484375 351.632404,4.21484375 L351.632404,4.21484375 Z M360.181747,6.13671875 C360.181747,7.08203598 359.947375,7.80859121 359.478622,8.31640625 C359.00987,8.82422129 358.338002,9.078125 357.462997,9.078125 C356.587993,9.078125 355.916125,8.82422129 355.447372,8.31640625 C354.97862,7.80859121 354.744247,7.07943184 354.744247,6.12890625 C354.744247,5.17838066 354.979271,4.45247646 355.449325,3.95117188 C355.91938,3.44986729 356.593201,3.19921875 357.47081,3.19921875 C358.348418,3.19921875 359.019635,3.45182039 359.484482,3.95703125 C359.949328,4.46224211 360.181747,5.18879734 360.181747,6.13671875 L360.181747,6.13671875 Z M356.013778,6.13671875 C356.013778,6.77474277 356.134871,7.25520672 356.37706,7.578125 C356.619248,7.90104328 356.981224,8.0625 357.462997,8.0625 C358.429148,8.0625 358.912216,7.42057934 358.912216,6.13671875 C358.912216,4.85025398 358.431752,4.20703125 357.47081,4.20703125 C356.989036,4.20703125 356.625759,4.369139 356.380966,4.69335938 C356.136173,5.01757975 356.013778,5.49869473 356.013778,6.13671875 L356.013778,6.13671875 Z M367.285778,9 L365.746715,9 L363.26234,4.6796875 L363.227184,4.6796875 C363.276663,5.44271215 363.301403,5.98697754 363.301403,6.3125 L363.301403,9 L362.219371,9 L362.219371,3.2890625 L363.746715,3.2890625 L366.227184,7.56640625 L366.254528,7.56640625 C366.215465,6.82421504 366.195934,6.2994807 366.195934,5.9921875 L366.195934,3.2890625 L367.285778,3.2890625 L367.285778,9 Z M374.31559,6.08984375 C374.31559,7.02995262 374.048014,7.7499975 373.512855,8.25 C372.977696,8.7500025 372.204918,9 371.194496,9 L369.577308,9 L369.577308,3.2890625 L371.370277,3.2890625 C372.302573,3.2890625 373.026524,3.53515379 373.542152,4.02734375 C374.05778,4.51953371 374.31559,5.20702684 374.31559,6.08984375 L374.31559,6.08984375 Z M373.057777,6.12109375 C373.057777,4.89452512 372.516116,4.28125 371.432777,4.28125 L370.788246,4.28125 L370.788246,8 L371.307777,8 C372.47445,8 373.057777,7.37370418 373.057777,6.12109375 L373.057777,6.12109375 Z M381.001651,3.2890625 L381.001651,6.984375 C381.001651,7.40625211 380.907251,7.77604008 380.718448,8.09375 C380.529645,8.41145992 380.256861,8.65494707 379.900089,8.82421875 C379.543316,8.99349043 379.121445,9.078125 378.634464,9.078125 C377.900085,9.078125 377.329778,8.88997584 376.923526,8.51367188 C376.517274,8.13736791 376.314151,7.6223991 376.314151,6.96875 L376.314151,3.2890625 L377.521183,3.2890625 L377.521183,6.78515625 C377.521183,7.22526262 377.609723,7.54817605 377.786808,7.75390625 C377.963892,7.95963645 378.256858,8.0625 378.665714,8.0625 C379.061549,8.0625 379.348656,7.95898541 379.527042,7.75195312 C379.705428,7.54492084 379.79462,7.2200543 379.79462,6.77734375 L379.79462,3.2890625 L381.001651,3.2890625 Z M385.679901,4.21484375 C385.224169,4.21484375 384.871308,4.386066 384.621307,4.72851562 C384.371306,5.07096525 384.246307,5.54817402 384.246307,6.16015625 C384.246307,7.43360012 384.724167,8.0703125 385.679901,8.0703125 C386.080944,8.0703125 386.566617,7.97005309 387.136932,7.76953125 L387.136932,8.78515625 C386.66818,8.98046973 386.144747,9.078125 385.566619,9.078125 C384.735886,9.078125 384.100476,8.82617439 383.660369,8.32226562 C383.220263,7.81835686 383.000213,7.0950568 383.000213,6.15234375 C383.000213,5.55859078 383.108285,5.03841369 383.324432,4.59179688 C383.540579,4.14518006 383.851123,3.80273557 384.256073,3.56445312 C384.661022,3.32617068 385.135627,3.20703125 385.679901,3.20703125 C386.234591,3.20703125 386.791877,3.34114449 387.351776,3.609375 L386.961151,4.59375 C386.747608,4.49218699 386.532766,4.40364621 386.316619,4.328125 C386.100472,4.25260379 385.888235,4.21484375 385.679901,4.21484375 L385.679901,4.21484375 Z M391.408931,9 L390.197994,9 L390.197994,4.296875 L388.647212,4.296875 L388.647212,3.2890625 L392.959712,3.2890625 L392.959712,4.296875 L391.408931,4.296875 L391.408931,9 Z" id="4.-CONDUCT" fill="#4A4A4A"></path>
                                <circle id="Oval" fill="#00BCCA" cx="367" cy="48" r="18"></circle>
                                <path d="M448.398438,2.3515625 C448.950524,2.3515625 449.389972,2.50650887 449.716797,2.81640625 C450.043621,3.12630363 450.207031,3.55077855 450.207031,4.08984375 C450.207031,4.72786777 450.010419,5.21874828 449.617188,5.5625 C449.223956,5.90625172 448.661462,6.078125 447.929688,6.078125 C447.294268,6.078125 446.781252,5.97526145 446.390625,5.76953125 L446.390625,4.7265625 C446.596355,4.83593805 446.835936,4.92512986 447.109375,4.99414062 C447.382814,5.06315139 447.641926,5.09765625 447.886719,5.09765625 C448.623702,5.09765625 448.992188,4.79557594 448.992188,4.19140625 C448.992188,3.61588254 448.610681,3.328125 447.847656,3.328125 C447.709635,3.328125 447.557293,3.34179674 447.390625,3.36914062 C447.223957,3.39648451 447.088542,3.42578109 446.984375,3.45703125 L446.503906,3.19921875 L446.71875,0.2890625 L449.816406,0.2890625 L449.816406,1.3125 L447.777344,1.3125 L447.671875,2.43359375 L447.808594,2.40625 C447.967449,2.36979148 448.164061,2.3515625 448.398438,2.3515625 L448.398438,2.3515625 Z M451.877468,5.44140625 C451.877468,5.22265516 451.936061,5.05729223 452.053249,4.9453125 C452.170437,4.83333277 452.341009,4.77734375 452.564968,4.77734375 C452.781115,4.77734375 452.948431,4.83463484 453.066921,4.94921875 C453.185411,5.06380266 453.244656,5.22786352 453.244656,5.44140625 C453.244656,5.64713645 453.18476,5.8092442 453.064968,5.92773438 C452.945176,6.04622455 452.778511,6.10546875 452.564968,6.10546875 C452.346217,6.10546875 452.176948,6.04752662 452.057156,5.93164062 C451.937363,5.81575463 451.877468,5.6523448 451.877468,5.44140625 L451.877468,5.44140625 Z M461.577717,4.4140625 C461.577717,4.92969008 461.392172,5.33593602 461.021076,5.6328125 C460.64998,5.92968898 460.13371,6.078125 459.472248,6.078125 C458.86287,6.078125 458.323813,5.96354281 457.85506,5.734375 L457.85506,4.609375 C458.240479,4.78125086 458.566648,4.9023434 458.833576,4.97265625 C459.100504,5.0429691 459.344643,5.078125 459.565998,5.078125 C459.831624,5.078125 460.035398,5.02734426 460.177326,4.92578125 C460.319254,4.82421824 460.390217,4.67317809 460.390217,4.47265625 C460.390217,4.36067652 460.358967,4.26106814 460.296467,4.17382812 C460.233966,4.08658811 460.14217,4.00260457 460.021076,3.921875 C459.899982,3.84114543 459.653239,3.71224047 459.280842,3.53515625 C458.931882,3.37109293 458.670165,3.21354242 458.495685,3.0625 C458.321205,2.91145758 458.181884,2.73567809 458.077717,2.53515625 C457.973549,2.33463441 457.921467,2.10026176 457.921467,1.83203125 C457.921467,1.32682039 458.092689,0.929688945 458.435139,0.640625 C458.777588,0.351561055 459.250891,0.20703125 459.85506,0.20703125 C460.151937,0.20703125 460.435137,0.242187148 460.70467,0.3125 C460.974202,0.382812852 461.256101,0.481770195 461.550373,0.609375 L461.159748,1.55078125 C460.855059,1.42578063 460.603108,1.33854191 460.403889,1.2890625 C460.204669,1.23958309 460.008707,1.21484375 459.815998,1.21484375 C459.58683,1.21484375 459.411051,1.26822863 459.288654,1.375 C459.166258,1.48177137 459.10506,1.62109289 459.10506,1.79296875 C459.10506,1.89974012 459.1298,1.99283814 459.179279,2.07226562 C459.228759,2.15169311 459.307534,2.22851525 459.415607,2.30273438 C459.523681,2.3769535 459.779538,2.5104157 460.183185,2.703125 C460.717042,2.95833461 461.082924,3.21419143 461.280842,3.47070312 C461.478759,3.72721482 461.577717,4.0416648 461.577717,4.4140625 L461.577717,4.4140625 Z M465.244247,2.640625 L466.435653,0.2890625 L467.740341,0.2890625 L465.84581,3.77734375 L465.84581,6 L464.642685,6 L464.642685,3.81640625 L462.748153,0.2890625 L464.060653,0.2890625 L465.244247,2.640625 Z M474.379528,6 L472.840465,6 L470.35609,1.6796875 L470.320934,1.6796875 C470.370413,2.44271215 470.395153,2.98697754 470.395153,3.3125 L470.395153,6 L469.313121,6 L469.313121,0.2890625 L470.840465,0.2890625 L473.320934,4.56640625 L473.348278,4.56640625 C473.309215,3.82421504 473.289684,3.2994807 473.289684,2.9921875 L473.289684,0.2890625 L474.379528,0.2890625 L474.379528,6 Z M478.874183,6 L477.663246,6 L477.663246,1.296875 L476.112465,1.296875 L476.112465,0.2890625 L480.424965,0.2890625 L480.424965,1.296875 L478.874183,1.296875 L478.874183,6 Z M486.837589,6 L485.630558,6 L485.630558,3.53515625 L483.368839,3.53515625 L483.368839,6 L482.157901,6 L482.157901,0.2890625 L483.368839,0.2890625 L483.368839,2.52734375 L485.630558,2.52734375 L485.630558,0.2890625 L486.837589,0.2890625 L486.837589,6 Z M492.422088,6 L489.133026,6 L489.133026,0.2890625 L492.422088,0.2890625 L492.422088,1.28125 L490.343963,1.28125 L490.343963,2.53515625 L492.277557,2.53515625 L492.277557,3.52734375 L490.343963,3.52734375 L490.343963,5 L492.422088,5 L492.422088,6 Z M497.838619,4.4140625 C497.838619,4.92969008 497.653074,5.33593602 497.281978,5.6328125 C496.910882,5.92968898 496.394612,6.078125 495.73315,6.078125 C495.123772,6.078125 494.584715,5.96354281 494.115962,5.734375 L494.115962,4.609375 C494.501381,4.78125086 494.82755,4.9023434 495.094478,4.97265625 C495.361406,5.0429691 495.605545,5.078125 495.8269,5.078125 C496.092526,5.078125 496.2963,5.02734426 496.438228,4.92578125 C496.580156,4.82421824 496.651119,4.67317809 496.651119,4.47265625 C496.651119,4.36067652 496.619869,4.26106814 496.557369,4.17382812 C496.494868,4.08658811 496.403072,4.00260457 496.281978,3.921875 C496.160884,3.84114543 495.914141,3.71224047 495.541744,3.53515625 C495.192784,3.37109293 494.931067,3.21354242 494.756587,3.0625 C494.582107,2.91145758 494.442786,2.73567809 494.338619,2.53515625 C494.234452,2.33463441 494.182369,2.10026176 494.182369,1.83203125 C494.182369,1.32682039 494.353591,0.929688945 494.696041,0.640625 C495.03849,0.351561055 495.511793,0.20703125 496.115962,0.20703125 C496.412839,0.20703125 496.696039,0.242187148 496.965572,0.3125 C497.235104,0.382812852 497.517003,0.481770195 497.811275,0.609375 L497.42065,1.55078125 C497.115961,1.42578063 496.86401,1.33854191 496.664791,1.2890625 C496.465571,1.23958309 496.269609,1.21484375 496.0769,1.21484375 C495.847732,1.21484375 495.671953,1.26822863 495.549556,1.375 C495.42716,1.48177137 495.365962,1.62109289 495.365962,1.79296875 C495.365962,1.89974012 495.390702,1.99283814 495.440181,2.07226562 C495.489661,2.15169311 495.568436,2.22851525 495.676509,2.30273438 C495.784583,2.3769535 496.04044,2.5104157 496.444087,2.703125 C496.977944,2.95833461 497.343826,3.21419143 497.541744,3.47070312 C497.739661,3.72721482 497.838619,4.0416648 497.838619,4.4140625 L497.838619,4.4140625 Z M499.727805,6 L499.727805,0.2890625 L500.938743,0.2890625 L500.938743,6 L499.727805,6 Z M506.601367,4.4140625 C506.601367,4.92969008 506.415822,5.33593602 506.044727,5.6328125 C505.673631,5.92968898 505.15736,6.078125 504.495899,6.078125 C503.88652,6.078125 503.347463,5.96354281 502.878711,5.734375 L502.878711,4.609375 C503.26413,4.78125086 503.590298,4.9023434 503.857227,4.97265625 C504.124155,5.0429691 504.368293,5.078125 504.589649,5.078125 C504.855275,5.078125 505.059049,5.02734426 505.200977,4.92578125 C505.342904,4.82421824 505.413867,4.67317809 505.413867,4.47265625 C505.413867,4.36067652 505.382618,4.26106814 505.320117,4.17382812 C505.257617,4.08658811 505.165821,4.00260457 505.044727,3.921875 C504.923632,3.84114543 504.67689,3.71224047 504.304492,3.53515625 C503.955532,3.37109293 503.693816,3.21354242 503.519336,3.0625 C503.344856,2.91145758 503.205534,2.73567809 503.101367,2.53515625 C502.9972,2.33463441 502.945117,2.10026176 502.945117,1.83203125 C502.945117,1.32682039 503.11634,0.929688945 503.458789,0.640625 C503.801239,0.351561055 504.274541,0.20703125 504.878711,0.20703125 C505.175588,0.20703125 505.458788,0.242187148 505.72832,0.3125 C505.997853,0.382812852 506.279751,0.481770195 506.574024,0.609375 L506.183399,1.55078125 C505.87871,1.42578063 505.626759,1.33854191 505.427539,1.2890625 C505.228319,1.23958309 505.032358,1.21484375 504.839649,1.21484375 C504.610481,1.21484375 504.434701,1.26822863 504.312305,1.375 C504.189908,1.48177137 504.128711,1.62109289 504.128711,1.79296875 C504.128711,1.89974012 504.15345,1.99283814 504.20293,2.07226562 C504.252409,2.15169311 504.331184,2.22851525 504.439258,2.30273438 C504.547331,2.3769535 504.803188,2.5104157 505.206836,2.703125 C505.740693,2.95833461 506.106575,3.21419143 506.304492,3.47070312 C506.50241,3.72721482 506.601367,4.0416648 506.601367,4.4140625 L506.601367,4.4140625 Z" id="5.-SYNTHESIS" fill="#4A4A4A"></path>
                                <circle id="Oval" fill="#00BCCA" cx="476" cy="45" r="18"></circle>
                            </g>
                        </g>
                    </g>
                </g>
                <path d="M34.7275997,88 L37.1143908,88 L29.5562189,73 L21.9980469,88 L24.384838,88 L29.5562189,77.7368421 L34.7275997,88 Z" id="Combined-Shape" fill="#00BCCA"></path>
            </g>
        </g>
    </g>
</svg>