<?xml version="1.0" encoding="UTF-8"?>
<svg width="45px" height="44px" viewBox="0 0 45 44" version="1.1" xmlns="http://www.w3.org/2000/svg" xmlns:xlink="http://www.w3.org/1999/xlink">
    <!-- Generator: Sketch 62 (91390) - https://sketch.com -->
    <title>Untitled 8</title>
    <desc>Created with Sketch.</desc>
    <g id="Page-1" stroke="none" stroke-width="1" fill="none" fill-rule="evenodd">
        <g id="buildoutlogo" fill="#154A93" fill-rule="nonzero">
            <path d="M23.8933941,43.8894317 L33.2758698,38.4947828 C34.3398614,37.889571 34.9972885,36.7661744 35,35.5486277 L35,19.6234649 C34.9972885,18.4059182 34.3398614,17.2825215 33.2758698,16.6773098 L24.2743065,11.4618189 C23.208531,10.8460604 21.8918218,10.8460604 20.8260462,11.4618189 L11.4435704,16.8365614 C11.1704133,16.982252 11,17.2652195 11,17.5731002 C11,17.8809808 11.1704133,18.1639483 11.4435704,18.3096389 L20.8861903,23.7640072 C21.9501819,24.369219 22.6076089,25.4926156 22.6103205,26.7101623 L22.6103205,43.2126122 C22.6338934,43.5037783 22.8053738,43.7629069 23.0651711,43.8999496 C23.3249685,44.0369923 23.6372115,44.033027 23.8933941,43.8894317 Z" id="Path"></path>
            <path d="M42.5010998,36.7714503 C43.0183533,37.0635082 43.652769,37.0605424 44.1672351,36.7636615 C44.6817012,36.4667806 44.9987854,35.9206681 45,35.3294327 L45,14.3600925 C45.0021645,13.755231 44.8421783,13.1607093 44.5364763,12.6376826 C44.2368769,12.1099742 43.7978663,11.6736698 43.266885,11.3759171 L33.7550266,5.92829483 L24.1827115,0.46064453 C23.6532637,0.164500024 23.0571306,0.006051829 22.4496187,0 C21.8413798,0.000670292159 21.2439005,0.159476306 20.7165258,0.46064453 L11.2449719,5.92829483 L1.73311349,11.3959451 C1.20213218,11.6936978 0.763121669,12.1300023 0.463522223,12.6577106 C0.161258133,13.1748645 0.00139453226,13.7620231 0,14.3600925 L0,35.3294327 C-0.00295967698,35.9268648 0.31687531,36.4799367 0.837786382,36.778132 C1.35869746,37.0763273 2.00055616,37.0737764 2.51905095,36.7714503 L2.51905095,36.7714503 L4.15138258,35.8301333 C4.67532544,35.5343879 5.00438374,34.9868028 5.017929,34.3881156 L5.017929,17.2641559 C5.01377413,16.6590425 5.17389654,16.0640145 5.48143058,15.5417459 C5.79238461,15.0434945 6.23038833,14.635829 6.75102185,14.3600925 L13.7640022,10.3544879 L20.7769825,6.34888331 C21.3043572,6.04771508 21.9018365,5.88890907 22.5100754,5.88823878 C23.1175873,5.89429061 23.7137204,6.0527388 24.2431682,6.34888331 L31.2359963,10.3544879 L38.2892812,14.3600925 C38.8202625,14.6578452 39.259273,15.0941497 39.5588724,15.621858 C39.8664065,16.1441265 40.0265289,16.7391546 40.022374,17.344268 L40.022374,34.3881156 C40.0227551,35.0061103 40.3524809,35.5776683 40.8889204,35.8902173 L42.5414043,36.8315344 L42.5010998,36.7714503 Z" id="Path"></path>
            <path d="M15.5562019,29.6919837 L14.7047589,29.1278193 C14.2446687,28.7658358 13.9782538,28.1494241 14.001393,27.5004218 L14.001393,25.9381203 C13.9929968,25.6032763 14.1419796,25.2900245 14.3893686,25.1223617 C14.6367575,24.9546989 14.9426681,24.959656 15.1860093,25.1352709 L17.2035588,26.5022847 C17.6933441,26.8337681 17.9963232,27.4450064 17.9994729,28.1079835 L17.9994729,28.1079835 C18.0146331,28.7959409 17.7018118,29.4365725 17.1880919,29.7696229 C16.674372,30.1026733 16.0452101,30.0727401 15.5562019,29.6919837 Z" id="Path"></path>
            <path d="M15.5562572,35.6919837 L14.7048336,35.1061206 C14.2449024,34.7541112 13.9775339,34.1437275 14.0014836,33.5004218 L14.0014836,31.9381203 C13.9930876,31.6032763 14.1420671,31.2900245 14.3894504,31.1223617 C14.6368337,30.9546989 14.9427374,30.959656 15.186073,31.1352709 L17.2035769,32.5022847 C17.693351,32.8337681 17.9963233,33.4450064 17.9994729,34.1079835 L17.9994729,34.1079835 C18.0146328,34.7959409 17.7018185,35.4365725 17.1881103,35.7696229 C16.6744021,36.1026733 16.0452544,36.0727401 15.5562572,35.6919837 Z" id="Path"></path>
        </g>
    </g>
</svg>