<?xml version="1.0" encoding="UTF-8" standalone="no"?>
<svg width="37px" height="38px" viewBox="0 0 37 38" version="1.1" xmlns="http://www.w3.org/2000/svg" xmlns:xlink="http://www.w3.org/1999/xlink">
    <!-- Generator: Sketch 41.2 (35397) - http://www.bohemiancoding.com/sketch -->
    <title>Dribbble</title>
    <desc>Created with Sketch.</desc>
    <defs></defs>
    <g id="Page-1" stroke="none" stroke-width="1" fill="none" fill-rule="evenodd">
        <g id="SOCIAL-ICONS-SKETCH" transform="translate(-418.000000, -747.000000)" fill="#FFFFFF">
            <g id="SINGLE-WHITE" transform="translate(0.000000, 568.000000)">
                <path d="M453.421,190.67 C452.964,189.583 452.393,188.535 451.731,187.556 C451.077,186.586 450.323,185.672 449.495,184.844 C448.664,184.014 447.752,183.261 446.78,182.606 C445.801,181.942 444.753,181.374 443.666,180.913 C442.557,180.447 441.397,180.085 440.22,179.846 C439.012,179.598 437.77,179.471 436.528,179.471 C435.284,179.471 434.042,179.598 432.834,179.846 C431.656,180.085 430.496,180.447 429.388,180.913 C428.301,181.374 427.253,181.942 426.272,182.606 C425.301,183.261 424.389,184.014 423.559,184.844 C422.731,185.672 421.978,186.586 421.323,187.556 C420.661,188.535 420.089,189.583 419.632,190.67 C419.162,191.778 418.802,192.94 418.56,194.118 C418.315,195.323 418.19,196.565 418.19,197.807 C418.19,199.053 418.315,200.295 418.56,201.502 C418.802,202.68 419.162,203.84 419.632,204.946 C420.089,206.033 420.661,207.085 421.323,208.064 C421.978,209.034 422.731,209.944 423.559,210.776 C424.389,211.604 425.301,212.355 426.272,213.012 C427.253,213.674 428.301,214.243 429.388,214.703 C430.496,215.173 431.656,215.531 432.834,215.77 C434.042,216.02 435.284,216.145 436.528,216.145 C437.77,216.145 439.012,216.02 440.22,215.77 C441.397,215.531 442.557,215.173 443.666,214.703 C444.753,214.243 445.801,213.674 446.78,213.012 C447.752,212.355 448.664,211.604 449.495,210.776 C450.323,209.944 451.077,209.034 451.731,208.064 C452.393,207.085 452.964,206.033 453.421,204.946 C453.889,203.84 454.252,202.68 454.493,201.502 C454.739,200.295 454.864,199.053 454.864,197.807 C454.864,196.565 454.739,195.323 454.493,194.118 C454.252,192.94 453.889,191.778 453.421,190.67 L453.421,190.67 Z M436.528,182.148 C440.491,182.148 444.112,183.628 446.87,186.058 C446.831,186.116 444.602,189.512 438.689,191.726 C436.012,186.808 433.071,182.901 432.836,182.591 C434.02,182.304 435.256,182.148 436.528,182.148 L436.528,182.148 Z M432.776,182.603 C432.776,182.606 432.773,182.608 432.773,182.608 C432.773,182.608 432.754,182.612 432.726,182.616 C432.743,182.612 432.758,182.61 432.776,182.603 L432.776,182.603 Z M429.845,183.647 C430.054,183.925 432.95,187.852 435.661,192.669 C428.141,194.667 421.614,194.588 421.202,194.581 C422.218,189.73 425.476,185.708 429.845,183.647 L429.845,183.647 Z M424.879,208.273 C422.384,205.498 420.866,201.83 420.866,197.807 C420.866,197.641 420.874,197.477 420.879,197.313 C421.157,197.32 428.894,197.494 436.957,195.081 C437.406,195.959 437.835,196.854 438.227,197.744 C438.02,197.8 437.815,197.863 437.61,197.932 C429.159,200.662 424.872,208.264 424.872,208.264 C424.872,208.264 424.879,208.271 424.879,208.273 L424.879,208.273 Z M436.528,213.469 C432.829,213.469 429.432,212.184 426.751,210.039 C426.695,209.995 426.629,209.944 426.55,209.879 C426.629,209.944 426.695,209.995 426.751,210.039 C426.842,210.109 426.901,210.153 426.901,210.153 C426.901,210.153 429.903,203.607 439.191,200.37 C439.226,200.358 439.262,200.349 439.297,200.338 C441.5,206.063 442.409,210.858 442.641,212.227 C440.763,213.025 438.695,213.469 436.528,213.469 L436.528,213.469 Z M445.279,210.796 C445.119,209.851 444.284,205.254 442.229,199.611 C447.286,198.803 451.666,200.189 451.99,200.295 C451.293,204.659 448.794,208.422 445.279,210.796 L445.279,210.796 Z M441.276,197.138 C441.164,196.871 441.054,196.601 440.938,196.332 C440.612,195.564 440.261,194.805 439.896,194.059 C446.081,191.534 448.591,187.906 448.621,187.862 C450.816,190.53 452.147,193.936 452.184,197.652 C451.957,197.602 446.657,196.461 441.276,197.138 L441.276,197.138 Z" id="Dribbble"></path>
            </g>
        </g>
    </g>
</svg>