<?xml version="1.0" encoding="UTF-8" standalone="no"?>
<svg width="19px" height="18px" viewBox="0 0 19 18" version="1.1" xmlns="http://www.w3.org/2000/svg" xmlns:xlink="http://www.w3.org/1999/xlink">
    <!-- Generator: Sketch 41.2 (35397) - http://www.bohemiancoding.com/sketch -->
    <title>Linkedin</title>
    <desc>Created with Sketch.</desc>
    <defs></defs>
    <g id="Page-1" stroke="none" stroke-width="1" fill="none" fill-rule="evenodd">
        <g id="SIGNATURE" transform="translate(-457.000000, -30.000000)" fill="#FFFFFF">
            <g id="Group-2" transform="translate(446.000000, 19.000000)">
                <path d="M11.4820253,17.178 L15.1225316,17.178 L15.1225316,28.569 L11.4820253,28.569 L11.4820253,17.178 Z M25.0693671,17.0685 C22.9837975,17.0685 21.676962,18.184 21.435443,18.966 L21.435443,17.178 L17.3458228,17.178 C17.398481,18.1275 17.3458228,28.569 17.3458228,28.569 L21.435443,28.569 L21.435443,22.405 C21.435443,22.0625 21.4192405,21.72 21.524557,21.474 C21.8055696,20.789 22.4096203,20.078 23.4956962,20.078 C24.9159494,20.078 25.561519,21.1315 25.561519,22.6745 L25.561519,28.569 L29.6896203,28.569 L29.6896203,22.2355 C29.6896203,18.707 27.6567089,17.0685 25.0693671,17.0685 Z M13.2349367,11.801 C11.8906329,11.801 11.0111392,12.6535 11.0111392,13.7785 C11.0111392,14.8825 11.8658228,15.753 13.1832911,15.753 L13.2096203,15.753 C14.5782278,15.753 15.4303797,14.879 15.4303797,13.7755 C15.4040506,12.6515 14.5782278,11.801 13.2349367,11.801 Z" id="Linkedin"></path>
            </g>
        </g>
    </g>
</svg>