<?xml version="1.0" encoding="UTF-8" standalone="no"?>
<svg width="19px" height="17px" viewBox="0 0 19 17" version="1.1" xmlns="http://www.w3.org/2000/svg" xmlns:xlink="http://www.w3.org/1999/xlink">
    <!-- Generator: Sketch 41.2 (35397) - http://www.bohemiancoding.com/sketch -->
    <title>Twitter</title>
    <desc>Created with Sketch.</desc>
    <defs></defs>
    <g id="Page-1" stroke="none" stroke-width="1" fill="none" fill-rule="evenodd">
        <g id="SIGNATURE" transform="translate(-505.000000, -31.000000)" fill="#FFFFFF">
            <g id="Group-3" transform="translate(495.000000, 19.000000)">
                <path d="M28.463517,12.4347931 C27.7223619,12.8971942 26.9034006,13.2334859 26.0280795,13.4134225 C25.3308152,12.6290836 24.3342958,12.139 23.2310421,12.139 C21.1163062,12.139 19.4000784,13.9475931 19.4000784,16.1780888 C19.4000784,16.4943875 19.4329965,16.8019714 19.4988326,17.0977645 C16.3137611,16.9291061 13.4902895,15.3230056 11.5989975,12.876176 C11.2688194,13.4749393 11.0802887,14.1695661 11.0802887,14.9087927 C11.0802887,16.3098372 11.7566051,17.5463243 12.7855438,18.2706843 C12.1581057,18.251204 11.5660794,18.067679 11.0483681,17.7667594 L11.0483681,17.8164855 C11.0483681,19.7742568 12.3695793,21.4075271 14.1242115,21.7771404 C13.8030111,21.8719788 13.4638553,21.9191416 13.1142256,21.9191416 C12.8673402,21.9191416 12.6264399,21.8950475 12.3930209,21.8478847 C12.8808067,23.4519345 14.2952857,24.6202406 15.9726103,24.650999 C14.6613744,25.7352321 13.0079901,26.3811582 11.2129584,26.3811582 C10.9037282,26.3811582 10.5979892,26.3627032 10.2987342,26.3257931 C11.9945129,27.4700051 14.0099958,28.139 16.17361,28.139 C23.2235607,28.139 27.0774673,21.9852721 27.0774673,16.6471542 C27.0774673,16.4713187 27.0744747,16.2959959 27.0679909,16.123749 C27.8166273,15.5536935 28.4670083,14.8431748 28.9787345,14.033204 C28.2924429,14.3541165 27.5532828,14.5714757 26.7782122,14.6688773 C27.5697419,14.1695661 28.1772296,13.3775377 28.463517,12.4347931" id="Twitter"></path>
            </g>
        </g>
    </g>
</svg>