<?xml version="1.0" encoding="UTF-8" standalone="no"?>
<svg width="40px" height="40px" viewBox="0 0 40 40" version="1.1" xmlns="http://www.w3.org/2000/svg" xmlns:xlink="http://www.w3.org/1999/xlink">
    <!-- Generator: Sketch 41.2 (35397) - http://www.bohemiancoding.com/sketch -->
    <title>Group 4</title>
    <desc>Created with Sketch.</desc>
    <defs></defs>
    <g id="Page-1" stroke="none" stroke-width="1" fill="none" fill-rule="evenodd">
        <g id="SIGNATURE" transform="translate(-546.000000, -19.000000)" fill="#9095A4">
            <g id="Group-4" transform="translate(546.000000, 19.000000)">
                <path d="M20.0131646,39.78 C8.99493671,39.78 0.0303797468,30.928 0.0303797468,20.0475 C0.0303797468,9.1665 8.99493671,0.3145 20.0131646,0.3145 C31.0318987,0.3145 39.9959494,9.1665 39.9959494,20.0475 C39.9959494,30.928 31.0318987,39.78 20.0131646,39.78 L20.0131646,39.78 Z M20.0131646,1.8145 C9.83240506,1.8145 1.54936709,9.9935 1.54936709,20.0475 C1.54936709,30.101 9.83240506,38.28 20.0131646,38.28 C30.1944304,38.28 38.476962,30.101 38.476962,20.0475 C38.476962,9.9935 30.1944304,1.8145 20.0131646,1.8145 L20.0131646,1.8145 Z" id="Instagram-Circle"></path>
                <path d="M27.5726582,10.8325 L13.4222785,10.8325 C12.2035443,10.8325 11.2156962,11.8055 11.2156962,13.0065 L11.2156962,26.99 C11.2156962,28.1905 12.2035443,29.164 13.4222785,29.164 L27.5726582,29.164 C28.7913924,29.164 29.7792405,28.1905 29.7792405,26.99 L29.7792405,13.0065 C29.7792405,11.8055 28.7913924,10.8325 27.5726582,10.8325 L27.5726582,10.8325 Z M24.558481,13.6965 C24.558481,13.3805 24.8182278,13.1235 25.1382278,13.1235 L26.878481,13.1235 C27.1989873,13.1235 27.4587342,13.3805 27.4587342,13.6965 L27.4587342,15.415 C27.4587342,15.7315 27.1989873,15.988 26.878481,15.988 L25.1382278,15.988 C24.8182278,15.988 24.558481,15.7315 24.558481,15.415 L24.558481,13.6965 L24.558481,13.6965 Z M20.5189873,16.5025 C22.4906329,16.5025 24.0891139,18.0775 24.0891139,20.019 C24.0891139,21.962 22.4906329,23.5365 20.5189873,23.5365 C18.5478481,23.5365 16.9493671,21.962 16.9493671,20.019 C16.9493671,18.0775 18.5478481,16.5025 20.5189873,16.5025 L20.5189873,16.5025 Z M28.0389873,26.8725 C28.0389873,27.1885 27.7792405,27.4455 27.4587342,27.4455 L13.5362025,27.4455 C13.2156962,27.4455 12.9559494,27.1885 12.9559494,26.8725 L12.9559494,18.2795 L15.2764557,18.2795 C14.9741772,18.709 14.8718987,19.5105 14.8718987,20.019 C14.8718987,23.087 17.4055696,25.583 20.5189873,25.583 C23.6329114,25.583 26.1665823,23.087 26.1665823,20.019 C26.1665823,19.5105 26.0931646,18.721 25.718481,18.2795 L28.0389873,18.2795 L28.0389873,26.8725 L28.0389873,26.8725 Z" id="Instagram"></path>
            </g>
        </g>
    </g>
</svg>