<?xml version="1.0" encoding="utf-8"?>
<!-- Generator: Adobe Illustrator 16.0.0, SVG Export Plug-In . SVG Version: 6.00 Build 0)  -->
<!DOCTYPE svg PUBLIC "-//W3C//DTD SVG 1.1//EN" "http://www.w3.org/Graphics/SVG/1.1/DTD/svg11.dtd">
<svg version="1.1" id="Layer_1" xmlns="http://www.w3.org/2000/svg" xmlns:xlink="http://www.w3.org/1999/xlink" x="0px" y="0px"
	 width="807px" height="426.5px" viewBox="0 0 807 426.5" enable-background="new 0 0 807 426.5" xml:space="preserve">
<rect x="15" y="28.9" fill="#FFFFFF" stroke="#00ABCA" stroke-miterlimit="10" width="783.8" height="384.6"/>
<g>
	<rect x="15" y="28.9" fill="#00ABCA" width="783.8" height="68.8"/>
	<line fill="none" stroke="#00ABCA" stroke-miterlimit="10" x1="171.8" y1="28.9" x2="171.8" y2="413.5"/>
	<line fill="none" stroke="#00ABCA" stroke-miterlimit="10" x1="328.5" y1="28.9" x2="328.5" y2="413.5"/>
	<line fill="none" stroke="#00ABCA" stroke-miterlimit="10" x1="642.1" y1="28.9" x2="642.1" y2="413.5"/>
	<line fill="none" stroke="#00ABCA" stroke-miterlimit="10" x1="485.3" y1="28.9" x2="485.3" y2="413.5"/>
	<text transform="matrix(1 0 0 1 44.3262 71.6968)" fill="#FFFFFF" font-family="'Futura-Medium'" font-size="21.111">MONDAY</text>
	<text transform="matrix(1 0 0 1 201.6562 71.6958)" fill="#FFFFFF" font-family="'Futura-Medium'" font-size="21.111">TUESDAY</text>
	<text transform="matrix(1 0 0 1 509.5508 71.6968)" fill="#FFFFFF" font-family="'Futura-Medium'" font-size="21.111">THURSDAY</text>
	<text transform="matrix(1 0 0 1 339.25 71.6958)" fill="#FFFFFF" font-family="'Futura-Medium'" font-size="21.111">WEDNESDAY</text>
	<text transform="matrix(1 0 0 1 684.3604 71.6958)" fill="#FFFFFF" font-family="'Futura-Medium'" font-size="21.111">FRIDAY</text>
</g>
<rect x="15" y="221.2" fill="#00ABCA" width="783.8" height="68.8"/>
<text transform="matrix(1 0 0 1 44.3281 263.9888)" fill="#FFFFFF" font-family="'Futura-Medium'" font-size="21.111">MONDAY</text>
<text transform="matrix(1 0 0 1 201.6562 263.9878)" fill="#FFFFFF" font-family="'Futura-Medium'" font-size="21.111">TUESDAY</text>
<text transform="matrix(1 0 0 1 509.5508 263.9888)" fill="#FFFFFF" font-family="'Futura-Medium'" font-size="21.111">THURSDAY</text>
<text transform="matrix(1 0 0 1 339.251 263.9878)" fill="#FFFFFF" font-family="'Futura-Medium'" font-size="21.111">WEDNESDAY</text>
<text transform="matrix(1 0 0 1 684.3623 263.9878)" fill="#FFFFFF" font-family="'Futura-Medium'" font-size="21.111">FRIDAY</text>
<text transform="matrix(0.9979 -6.439429e-02 6.439429e-02 0.9979 225.4023 178.0083)" fill="#3A3A3A" font-family="'alwaysforever'" font-size="41.0991">Kyle</text>
<text transform="matrix(0.9961 -8.795603e-02 8.795603e-02 0.9961 370.5176 175.9966)" fill="#3A3A3A" font-family="'alwaysforever'" font-size="41.0991">Mike D</text>
<text transform="matrix(0.9913 -0.1318 0.1318 0.9913 522.7871 179.8096)" fill="#3A3A3A" font-family="'alwaysforever'" font-size="41.0991">Nelsol</text>
<text transform="matrix(0.994 -0.1089 0.1089 0.994 529.8442 363.5962)" fill="#3A3A3A" font-family="'alwaysforever'" font-size="41.0991">Nelsol</text>
<text transform="matrix(0.9884 0.1521 -0.1521 0.9884 681.9775 166.6665)" fill="#3A3A3A" font-family="'alwaysforever'" font-size="41.0991">Eric M</text>
<text transform="matrix(0.9999 -1.474326e-02 1.474326e-02 0.9999 684.3604 354.936)" fill="#3A3A3A" font-family="'alwaysforever'" font-size="41.0991">Eric M</text>
<text transform="matrix(0.9919 -0.127 0.127 0.9919 54.6123 370.646)" fill="#3A3A3A" font-family="'alwaysforever'" font-size="41.0991">Malcolm</text>
<text transform="matrix(0.997 -7.788870e-02 7.788870e-02 0.997 372.2065 372.2329)" fill="#3A3A3A" font-family="'alwaysforever'" font-size="41.0991">Kevin B.</text>
<text transform="matrix(0.9884 0.1521 -0.1521 0.9884 214.499 363.5991)" fill="#3A3A3A" font-family="'alwaysforever'" font-size="41.0991">Chris</text>
<rect x="171.8" y="97.7" opacity="0.2" fill="#2174FF" width="156.8" height="122.5"/>
<text transform="matrix(0.9296 -0.3686 0.3686 0.9296 63.5967 185.8257)" fill="#3A3A3A" font-family="'alwaysforever'" font-size="41.0991">Ginny</text>
<g>
	
		<line opacity="0.5" fill="none" stroke="#003FF2" stroke-width="2" stroke-miterlimit="10" x1="20.8" y1="117.4" x2="154.8" y2="206.4"/>
	
		<line opacity="0.5" fill="none" stroke="#003FF2" stroke-width="2" stroke-miterlimit="10" x1="37.8" y1="220.4" x2="123.8" y2="97.4"/>
</g>
</svg>
