<?xml version="1.0" encoding="UTF-8" standalone="no"?>
<svg width="40px" height="40px" viewBox="0 0 40 40" version="1.1" xmlns="http://www.w3.org/2000/svg" xmlns:xlink="http://www.w3.org/1999/xlink">
    <!-- Generator: Sketch 41.2 (35397) - http://www.bohemiancoding.com/sketch -->
    <title>Group 3</title>
    <desc>Created with Sketch.</desc>
    <defs></defs>
    <g id="Page-1" stroke="none" stroke-width="1" fill="none" fill-rule="evenodd">
        <g id="SIGNATURE" transform="translate(-495.000000, -19.000000)" fill="#9095A4">
            <g id="Group-3" transform="translate(495.000000, 19.000000)">
                <path d="M20.0131646,39.78 C8.99493671,39.78 0.0303797468,30.928 0.0303797468,20.0475 C0.0303797468,9.1665 8.99493671,0.3145 20.0131646,0.3145 C31.0318987,0.3145 39.9959494,9.1665 39.9959494,20.0475 C39.9959494,30.928 31.0318987,39.78 20.0131646,39.78 L20.0131646,39.78 Z M20.0131646,1.8145 C9.83240506,1.8145 1.54936709,9.9935 1.54936709,20.0475 C1.54936709,30.101 9.83240506,38.28 20.0131646,38.28 C30.1944304,38.28 38.476962,30.101 38.476962,20.0475 C38.476962,9.9935 30.1944304,1.8145 20.0131646,1.8145 L20.0131646,1.8145 Z" id="Twitter-Circle"></path>
                <path d="M28.7392405,12.4275 C27.9868354,12.8785 27.155443,13.2065 26.2668354,13.382 C25.5589873,12.617 24.5473418,12.139 23.4273418,12.139 C21.2805063,12.139 19.5382278,13.903 19.5382278,16.0785 C19.5382278,16.387 19.5716456,16.687 19.638481,16.9755 C16.4050633,16.811 13.5387342,15.2445 11.6187342,12.858 C11.2835443,13.442 11.0921519,14.1195 11.0921519,14.8405 C11.0921519,16.207 11.7787342,17.413 12.8232911,18.1195 C12.1863291,18.1005 11.5853165,17.9215 11.0597468,17.628 L11.0597468,17.6765 C11.0597468,19.586 12.4010127,21.179 14.1822785,21.5395 C13.8562025,21.632 13.5118987,21.678 13.156962,21.678 C12.9063291,21.678 12.6617722,21.6545 12.4248101,21.6085 C12.92,23.173 14.3559494,24.3125 16.0587342,24.3425 C14.7275949,25.4 13.0491139,26.03 11.2268354,26.03 C10.9129114,26.03 10.6025316,26.012 10.2987342,25.976 C12.0202532,27.092 14.0663291,27.7445 16.2627848,27.7445 C23.4197468,27.7445 27.3321519,21.7425 27.3321519,16.536 C27.3321519,16.3645 27.3291139,16.1935 27.3225316,16.0255 C28.0825316,15.4695 28.7427848,14.7765 29.2622785,13.9865 C28.5655696,14.2995 27.8151899,14.5115 27.0283544,14.6065 C27.8318987,14.1195 28.4486076,13.347 28.7392405,12.4275" id="Twitter"></path>
            </g>
        </g>
    </g>
</svg>