<?xml version="1.0" encoding="UTF-8"?>
<svg width="2005px" height="721px" viewBox="0 0 2005 721" version="1.1" xmlns="http://www.w3.org/2000/svg" xmlns:xlink="http://www.w3.org/1999/xlink">
    <!-- Generator: Sketch 51.3 (57544) - http://www.bohemiancoding.com/sketch -->
    <title>eg</title>
    <desc>Created with Sketch.</desc>
    <defs>
        <path d="M298,325 C290.01,327.316 282.68,331.145 275,334.265 C258.89,340.812 242.63,346.963 226,352.039 C214.93,355.418 200.48,359.188 189,355.305 C179.63,352.136 173.64,343.441 169.49,334.996 C157.54,310.663 168.56,279.265 178.33,256 C201.32,201.259 233.65,149.927 272.35,104.95 C293.52,80.341 315.38,56.399 341.61,37.003 C361.54,22.276 383.78,9.015 408,3.102 C419.34,0.333 432.37,-1.944 442.33,6.133 C447.14,10.031 449.9,16.457 452.28,22 C463.64,48.429 450.86,75.796 442.43,101 C434.56,124.516 422.47,146.369 412.87,169.089 C404.61,188.648 394.34,207.594 384.12,226.17 C374.94,242.848 366.43,260.054 356,276 C376.8,270.324 397.34,262.734 419,260.921 C430.31,259.975 440.61,259.684 451,265.249 C461.02,270.617 466.66,281.346 471.97,290.83 C484.54,313.313 491.08,338.966 496.51,364 C502.3,390.667 509.04,416.619 510.91,444 C515.34,508.739 496.53,578.35 442.49,618.456 C418.98,635.9 386.63,644.433 358,636.218 C341.11,631.372 325.05,621.385 311.71,610.076 C300.64,600.688 289.71,588.773 284.48,575 C281.85,568.091 280.05,561.036 283.75,554.09 C287.62,546.842 296.7,543.479 304,541.115 C326.15,533.937 358.09,538.348 365.94,564.039 C367.43,568.908 362.68,575.652 357.6,571.127 C355.68,569.409 356.03,566.314 356,564 C342.09,564 329.82,565.078 317,570.704 C312.65,572.615 305.24,575.642 304.37,581.159 C303.72,585.239 309.74,588.631 312.42,590.844 C321.75,598.526 333.27,605.099 345,608.243 C385.33,619.053 427.11,595.957 452,564.985 C497.25,508.684 501.11,433.888 484.59,366 C480.36,348.61 476.73,331.148 471.62,314 C468.5,303.542 465.92,292.082 455.42,286.569 C447.59,282.455 434.46,284.462 426,285.576 C402.38,288.686 379.54,295.121 357,302.86 C350.34,305.145 342.02,306.542 336.29,310.818 C332.29,313.802 330.46,318.827 327.69,322.83 C320.62,333.072 313.5,343.443 306.92,354 C296.22,371.146 284.55,387.948 272.83,404.424 C268.07,411.116 259.02,419.051 257,427 C251.53,432.257 247.37,438.98 242.76,445 C233.54,457.065 224.43,469.334 214.71,481 C177.29,525.922 139.15,571.451 94,608.919 C78.17,622.055 62.45,636.219 44,645.59 C36.79,649.252 28.28,653.278 20,651.945 C13.73,650.935 7.723,647.223 3.483,642.572 C1.795,640.721 -0.362,637.925 1.086,635.317 C3.218,631.476 14.94,630.354 19,630 C17.51,634.594 12.934,636.344 10,640 C25.04,637.747 38.65,626.686 50,617.247 C70.17,600.466 89.13,583.015 107.18,563.975 C126.26,543.85 145.48,523.953 163.71,503 C212.51,446.915 255.99,386.226 298,325 Z M323,289 C326.09,280.394 332.15,273.216 336.83,265.439 C345.71,250.669 354.74,235.967 363.28,221 C386.54,180.236 407.31,138.143 425.7,95 C432.8,78.333 439.03,61.629 443.26,44 C444.47,38.962 447.71,29.14 444.68,24.419 C440.38,17.709 426.44,20.064 420,20.845 C394.85,23.895 371.33,39.773 351,53.825 C323.43,72.885 299.88,98.862 278.71,124.615 C246.05,164.338 217.84,207.106 196.55,254 C187.83,273.214 181.27,292.436 176.88,313 C175.77,318.223 174.03,329.133 177.6,333.645 C179.79,336.417 183.76,337.027 187.04,337.549 C199.74,339.572 215.52,332.965 227.04,328.252 C248.43,319.499 269.56,310.159 290.83,301.216 C300.85,297.004 312.11,290.114 323,289 Z" id="path-1"></path>
    </defs>
    <g id="Page-1" stroke="none" stroke-width="1" fill="none" fill-rule="evenodd">
        <g id="eg">
            <g id="Clipped" transform="translate(882.000000, 0.000000)">
                <mask id="mask-2" fill="white">
                    <use xlink:href="#path-1"></use>
                </mask>
                <use id="Combined-Shape" fill="#FFFFFF" fill-rule="nonzero" xlink:href="#path-1"></use>
            </g>
            <path d="M1562.81409,399.428928 L1551.15683,413.523385 C1551.10303,413.682206 1551.05076,413.841097 1551,414 C1555.85803,410.173086 1560.29734,405.108121 1562.81409,399.428928 Z M1562.81409,399.428928 C1562.87728,399.286336 1562.93926,399.143357 1563,399 C1557.30227,401.734912 1553.16976,407.580353 1551.15683,413.523385 L1562.81409,399.428928 Z M1916,304 C1918.86,297.646 1924.85,294.011 1931,291.099 C1947.07,283.484 1969.51,284.976 1984,295.709 C1996.2,304.745 2002.17,320.541 2004.53,335 C2006.55,347.357 1999.83,360.421 1994.41,371 C1978.48,402.078 1952.77,424.496 1922,440.098 C1903.25,449.609 1872.37,453.36 1863,429 C1858.53,431.327 1855.16,435.162 1851.66,438.742 C1840.83,449.784 1814.41,472.151 1801.14,453.573 C1799.62,451.454 1798.74,449.474 1798,447 L1795,447 C1792.08,452.593 1785.26,456.357 1780,459.617 C1768.14,466.96 1752.44,475.02 1741.04,462.331 C1738.58,459.591 1736.52,456.241 1734.79,453 C1732.77,449.233 1732.18,445.211 1732,441 C1728.42,443.842 1724.79,446.629 1721.09,449.314 C1704.32,461.485 1673.33,481.25 1657.22,458 C1655.05,454.875 1653.3,451.559 1652,448 C1639.53,454.675 1625.71,460.899 1612,464.471 C1606.83,465.818 1601.43,467.708 1596,467.197 C1579.56,465.65 1568.69,445.567 1574,431 C1569.96,431.594 1564.66,432.187 1561,434.02 C1555.61,436.715 1551.08,442.013 1546.42,445.791 C1533.42,456.344 1514.64,468.406 1498.01,459.727 C1494.28,457.776 1491.51,454.915 1488.57,451.961 C1483.87,447.232 1480.47,441.649 1477,436 C1476.08,439.834 1473.7,442.518 1472.04,446.039 C1465.54,459.787 1454.99,474.267 1442.54,483.33 C1429.2,493.031 1416.28,484.454 1411.7,470 C1408.86,461.038 1415.59,449.719 1419.37,442 C1430.88,418.523 1450.08,392.281 1473,378.927 C1480.15,374.763 1492.2,377.362 1491.36,388.001 C1491.05,391.831 1487.16,394.255 1486.83,398 C1486.51,401.499 1488.95,405.281 1488.99,409 C1489.12,418.838 1482.72,443.295 1499,443.189 C1511.63,443.107 1526.03,434.083 1534.9,425.535 C1540.57,420.062 1532.98,414.22 1532.42,408 C1531.8,401.08 1537.61,390.993 1541.86,385.83 C1548.96,377.191 1565.22,361.376 1577.9,367.147 C1581.96,369 1584.62,373.453 1587.04,377.015 C1589.23,380.252 1591.29,383.958 1591.21,388 C1591.05,395.061 1585.7,401.737 1583,408 C1586.33,409.24 1587.99,411.153 1590.14,413.976 C1598.87,425.443 1594.39,436.324 1588,448 C1604.76,444.876 1620.45,438.266 1636,431.305 C1641.94,428.645 1649.76,426.867 1654.62,422.387 C1659.06,418.29 1662.03,411.775 1665.82,406.999 C1673.04,397.883 1682.14,388.943 1692.09,382.819 C1702.05,376.692 1712.29,376.049 1718.41,387.17 C1719.72,389.561 1721.06,392.197 1720.43,395 C1719,401.425 1711.7,407.591 1707,411.714 C1700.28,417.614 1693.35,423.328 1686,428.434 C1676.66,434.921 1669.49,438.532 1666,450 C1687.09,450 1708.59,438.768 1725.42,426.62 C1730.24,423.146 1735.65,419.954 1739.7,415.544 C1745.1,409.652 1747.92,401.628 1753.24,395.576 C1759.04,388.966 1764.41,382.119 1770.96,376.188 C1773.88,373.544 1777.73,370.224 1781.74,372.898 C1786.47,376.051 1788.26,383.661 1785.14,388.335 C1781.2,394.22 1775.12,398.62 1770.71,404.17 C1759.42,418.382 1750.6,433.773 1745,451 C1758.76,450.602 1772.22,441.017 1783,433.29 C1787.62,429.979 1792.78,426.562 1796.21,421.961 C1805.12,410.014 1810.61,396.142 1823.09,386.848 C1827.89,383.274 1834.65,376.674 1840.96,376.423 C1846.48,376.203 1853.27,387.86 1851.04,392.7 C1848.63,397.959 1841.08,401.156 1837,405.04 C1826.64,414.899 1814.15,427.5 1809,441 C1822.77,435.685 1834.29,426.807 1844.42,416.169 C1847.24,413.206 1850.85,410.553 1852.73,406.83 C1857.57,397.204 1856.11,383.262 1865.34,375.819 C1874.28,368.61 1883.1,389.057 1881.53,396 C1879.46,405.124 1871.04,411.642 1870,421 C1875.24,421 1880.82,421.538 1886,420.674 C1897.06,418.832 1907.44,413.296 1917,407.73 C1938.8,395.035 1958.36,378.193 1972.15,356.829 C1977.36,348.763 1982.59,340.071 1985.82,331 C1986.93,327.873 1989.12,323.528 1987.89,320.184 C1985.77,314.417 1975.21,311.385 1970,309.499 C1957.04,304.804 1942.91,301.408 1929,302.039 C1924.59,302.239 1920.39,303.641 1916,304 Z M1814,290 C1806.31,289.388 1798.73,287.619 1791,287.089 C1787.45,286.846 1782.58,287.927 1779.32,286.258 C1775.3,284.207 1777.71,277.052 1779.84,274.394 C1784.64,268.415 1794.47,269.427 1801,270.819 C1817.22,274.272 1834.71,292.214 1832.08,310 C1830.52,320.534 1822.1,332.706 1811,334.736 C1799.12,336.909 1782.43,323.732 1783.4,311.015 C1783.49,309.776 1783.78,308.406 1784.34,307.29 C1784.91,306.174 1785.56,304.943 1786.57,304.152 C1794.22,298.173 1797.22,311.233 1803.68,309.11 C1810.69,306.803 1812.04,295.781 1814,290 Z M1462,410 C1452.48,424.402 1440.85,436.915 1433.46,452.714 C1430.88,458.228 1427.63,463.897 1427,470 C1430.96,468.127 1434.72,465.795 1437.96,462.816 C1442.56,458.583 1446.04,453.245 1449.63,448.174 C1457.4,437.194 1467.97,424.236 1462,410 Z" id="Combined-Shape" fill="#FFFFFF" fill-rule="nonzero"></path>
            <path d="M66,427 C40.867,480.464 25.443,544.341 39.236,603 C56.886,678.06 137.965,738.584 215.424,715.363 C281.302,695.615 339.356,644.834 375.495,586.985 C385.177,571.486 394.266,555.543 402.059,539 C405.759,531.148 408.376,519.437 414,513 C413.949,506.781 417.603,500.889 419.336,495 C423.328,481.432 427.398,467.825 430.331,454 C440.16,407.664 434.187,356.156 402.101,319.576 C396.958,313.712 391.197,307.458 384.816,302.911 C356.765,282.927 322.073,280.071 289,284.575 C266.32,287.663 243.6,295.762 226.3,311.425 C212.468,323.948 204.974,339.805 198.83,357 C195.684,365.805 192.41,375.595 192,385 C195.754,382.663 197.397,377.809 199.562,374 C203.546,366.991 207.695,359.635 212.52,353.17 C226.837,333.987 247.408,320.414 270,312.935 C299.569,303.147 330.908,302.218 361,309.661 C377.627,313.774 395.518,322.869 404.539,338.039 C411.717,350.11 413.152,364.331 414.089,378 C415.782,402.69 411.642,427.231 404.794,451 C374.563,555.92 297.243,661.151 189,693.23 C155.886,703.044 114.79,695.075 89.285,671.532 C74.941,658.291 64.763,638.63 59.594,620 C47.717,577.193 53.533,529.905 66.1,488 C72.003,468.319 78.848,448.76 89.508,431 C97.79,417.201 106.345,402.684 117.421,390.899 C123.96,383.941 131.944,378.674 139.166,372.497 C143.882,368.463 148.64,364.326 153.15,360.066 C155.188,358.141 157.757,356.115 157.125,352.985 C156.686,350.811 155.034,348.819 153.856,347.001 C152.062,344.229 150.249,340.976 146.975,339.761 C143.641,338.523 140.69,340.623 137.965,342.313 C132.1,345.951 126.978,350.653 121.91,355.299 C99.368,375.968 75.993,397.41 48,410.659 C41.025,413.96 34.657,416.484 27,417.578 C24.329,417.959 20.719,418.766 18.318,417.088 C14.027,414.089 17.487,405.973 18.514,402 C22.265,387.483 28.909,372.389 35.63,359 C55.698,319.018 81.538,281.753 108.143,245.91 C116.392,234.796 124.601,223.691 133.385,213 C137.508,207.982 140.952,202.109 146,198 C137.623,209.87 137,225.027 137,239 C137,250.029 137.35,261.243 140,272 C143.778,267.62 142.713,262.419 143.424,257 C144.954,245.35 145.711,234.254 149.516,223 C157.985,197.956 177.272,177.905 188.04,153.999 C190.544,148.441 187.259,133.882 178.96,134.217 C173.981,134.418 169.2,140.8 166,144 C155.152,154.848 145.078,166.82 135.765,179 C109.418,213.459 82.834,247.181 58.089,282.83 C49.236,295.584 40.073,308.413 32.498,322 C24.793,335.821 17.64,349.528 11.22,364 C6.231,375.246 1.049,387.552 0.594,400 C-0.079,418.44 15.463,439.226 35,438.541 C45.764,438.164 56.767,431.943 66,427 Z M605,349 C609.111,347.495 612.733,344.807 617,343.708 C624.412,341.8 632.564,343.056 640,344 C636.585,353.297 634.432,361.893 626,368 C624.882,361.39 615.535,356.974 613,365 L609,365 L609,382 C612.265,382.194 613.508,383.103 615,386 C622.908,386.236 628.911,391.174 637,387.326 C644.476,383.77 648.052,377.361 651.05,370 C652.378,366.74 654.288,363.527 654.783,360 C656.631,346.854 647.043,328.569 635.714,322.12 C624.665,315.83 606.321,318.151 604.29,333 C603.549,338.418 604.576,343.627 605,349 Z M476,446 C465.641,441.157 455.215,432.429 451.939,421 C446.419,401.742 465.125,376.35 484,373.055 C489.687,372.062 494.276,374.375 499,377.324 C517.102,388.624 518.184,412.129 507,429 C514.967,428.657 523.045,425.112 531,425.61 C535.508,425.893 538.698,428.036 541.985,430.954 C545.7,434.251 549.931,437.877 550.987,443.004 C551.967,447.763 549.047,451.971 547.338,456.17 C543.294,466.106 537.611,475.529 535,486 C558.105,479.869 576.344,464.196 592.961,447.834 C597.892,442.978 601.073,437.204 603.979,431.001 C605.205,428.384 606.641,424.755 610.043,424.596 C615.896,424.324 623.721,433.688 624.512,439 C625.217,443.73 622.045,448.455 621.17,453 C618.983,464.361 617,474.358 617,486 C636.821,476.039 655.783,465.321 675,454.011 C682.847,449.392 691.558,445.402 698.985,440.162 C707.187,434.376 712.498,425.148 721.089,419.669 C730.637,413.581 737.798,412.561 745.37,422.004 C746.896,423.907 748.97,426.304 748.995,428.895 C749.022,431.762 746.129,433.102 743.985,434.293 C739.374,436.854 735.014,438.623 731.116,442.273 C720.087,452.599 712.877,466.495 709,481 C728.18,479.486 746.435,470.481 763,461.154 C768.804,457.885 775.982,455.511 780.606,450.557 C784.955,445.899 786.317,438.609 789.605,433.17 C793.47,426.775 799.192,422.507 804,417 C816.148,417.672 822.766,423.663 829,434 C829.042,429.045 830.028,415.869 837.99,418.877 C844.156,421.207 852.726,433.295 852.087,440 C851.514,446.019 845.345,454.114 852.148,458.786 C862.508,465.902 878.017,463.701 889,459.792 C908.39,452.892 924.36,441.545 935.45,424.089 C939.95,417.006 943.91,410.46 945,402 C940.88,401.206 934.53,399.02 931.36,396.158 C927.55,392.709 932.75,388.498 936.09,387.558 C944.15,385.289 950.23,390.91 954.56,397.001 C962.79,408.585 966.62,419.006 963.1,433 C952.1,476.832 892.198,509.553 854,477.127 C849.105,472.971 844.886,468.793 842,463 C835.361,473.809 827.59,484.611 816,490.56 C810.88,493.188 805.702,495.008 800.089,492.728 C792.078,489.474 788.961,481.297 782,477 C777.693,482.798 767.367,486.26 761,489.41 C747.084,496.294 726.55,506.155 711.004,499.095 C705.848,496.753 701.522,492.254 697.938,487.961 C694.996,484.435 692.877,480.338 691.384,476 C689.612,470.847 690.336,466.253 691,461 C674.043,469.089 660.719,483.88 645,493.946 C639.259,497.622 632.266,503.644 625,503.22 C617.413,502.777 610.568,495.425 606.084,489.999 C602.439,485.589 600.174,481.597 599,476 C585.684,489.281 566.389,504.502 547,506.816 C528.838,508.983 511.141,492.149 514.195,474 C515.795,464.495 521.083,455.657 525,447 C515.88,449.196 504.298,451.814 495,450 C493.516,454.637 490.465,458.046 487.75,462.025 C479.367,474.313 465.537,487.605 452,493.901 C444.154,497.55 430.108,498.101 427,488 C448.83,489.186 465.225,461.961 476,446 Z M469,431 C473.42,431.082 479.621,433.124 483.78,431.255 C487.402,429.628 489.08,424.397 490.421,420.985 C494.181,411.416 497.556,401.342 498,391 C479.731,392.656 469.011,414.745 469,431 Z M822,449 C814.731,456.119 803.497,461.074 800,471 C806.977,468.065 812.843,462.619 817.826,457 C819.962,454.591 822.163,452.236 822,449 Z" id="Combined-Shape" fill="#FFFFFF" fill-rule="nonzero"></path>
        </g>
    </g>
</svg>