<?xml version="1.0" encoding="utf-8"?>
<!-- Generator: Adobe Illustrator 16.0.0, SVG Export Plug-In . SVG Version: 6.00 Build 0)  -->
<!DOCTYPE svg PUBLIC "-//W3C//DTD SVG 1.1//EN" "http://www.w3.org/Graphics/SVG/1.1/DTD/svg11.dtd">
<svg version="1.1" id="Layer_1" xmlns="http://www.w3.org/2000/svg" xmlns:xlink="http://www.w3.org/1999/xlink" x="0px" y="0px"
	 width="331.3px" height="240px" viewBox="0 0 331.3 240" enable-background="new 0 0 331.3 240" xml:space="preserve">
<g>
	<g>
		<g>
			<rect x="246.1" y="8.9" fill="#F1F1F1" width="30.101" height="22.4"/>
			<g>
				<path fill="#F1F1F1" d="M106.5,120.7l-22-95.4c7.5-1.7,14.3-2.5,22-2.5V120.7z"/>
			</g>
		</g>
		<g>
			<rect x="246.1" y="42.4" fill="#7DC7E2" width="30.101" height="22.4"/>
			<g>
				<path fill="#202020" d="M106.5,120.7l-42.9-88c6.9-3.4,13.4-5.7,20.9-7.4L106.5,120.7z"/>
			</g>
		</g>
		<g>
			<rect x="246.1" y="76" fill="#9F9F9F" width="30.101" height="22.4"/>
			<g>
				<path fill="#7DC7E2" d="M106.5,120.7L29.4,60.5c9.5-12.1,20.4-21,34.2-27.7L106.5,120.7z"/>
			</g>
		</g>
		<g>
			<rect x="246.1" y="109.5" fill="#27A8E0" width="30.101" height="22.4"/>
			<g>
				<path fill="#27A8E0" d="M106.5,120.7l95.4-22c12.2,52.7-20.699,105.2-73.4,117.399C75.8,228.3,23.3,195.4,11.1,142.7
					c-6.9-30.1-0.8-58,18.2-82.3L106.5,120.7z"/>
			</g>
		</g>
		<g>
			<rect x="246.1" y="143.1" fill="#303030" width="30.101" height="22.4"/>
			<g>
				<path fill="#29323C" d="M106.5,120.7l60.3-77.1c18.199,14.2,29.9,32.6,35.1,55.1L106.5,120.7z"/>
			</g>
		</g>
		<g>
			<rect x="246.1" y="176.7" fill="#6C6C6C" width="30.101" height="22.399"/>
			<g>
				<path fill="#6C6C6C" d="M106.5,120.7L126.9,25c15.1,3.2,27.8,9.1,39.9,18.6L106.5,120.7z"/>
			</g>
		</g>
		<g>
			<rect x="246.1" y="210.2" width="30.101" height="22.399"/>
			<g>
				<path fill="#929292" d="M106.5,120.7V22.8c7.7,0,12.8,0.5,20.4,2.1L106.5,120.7z"/>
			</g>
		</g>
	</g>
	<g>
		<text transform="matrix(1 0 0 1 280.0063 24.2803)" fill="#29323C" font-family="'MyriadPro-Regular'" font-size="11.3006">4:00 </text>
		<text transform="matrix(1 0 0 1 302.1069 24.2803)" fill="#29323C" font-family="'MyriadPro-Regular'" font-size="11.3006">p</text>
		<text transform="matrix(1 0 0 1 308.3062 24.2803)" fill="#29323C" font-family="'MyriadPro-Regular'" font-size="11.3006">.m.</text>
		<text transform="matrix(1 0 0 1 280.0063 57.8438)" fill="#29323C" font-family="'MyriadPro-Regular'" font-size="11.3006">12:30 </text>
		<text transform="matrix(1 0 0 1 307.9058 57.8438)" fill="#29323C" font-family="'MyriadPro-Regular'" font-size="11.3006">p</text>
		<text transform="matrix(1 0 0 1 314.1069 57.8438)" fill="#29323C" font-family="'MyriadPro-Regular'" font-size="11.3006">.m.</text>
		<text transform="matrix(1 0 0 1 280.0063 91.4062)" fill="#29323C" font-family="'MyriadPro-Regular'" font-size="11.3006">12:15 </text>
		<text transform="matrix(1 0 0 1 307.9058 91.4062)" fill="#29323C" font-family="'MyriadPro-Regular'" font-size="11.3006">p</text>
		<text transform="matrix(1 0 0 1 314.1069 91.4062)" fill="#29323C" font-family="'MyriadPro-Regular'" font-size="11.3006">.m.</text>
		<text transform="matrix(1 0 0 1 280.0063 124.9688)" fill="#29323C" font-family="'MyriadPro-Regular'" font-size="11.3006">12:00 </text>
		<text transform="matrix(1 0 0 1 307.9058 124.9688)" fill="#29323C" font-family="'MyriadPro-Regular'" font-size="11.3006">p</text>
		<text transform="matrix(1 0 0 1 314.1069 124.9688)" fill="#29323C" font-family="'MyriadPro-Regular'" font-size="11.3006">.m.</text>
		<text transform="matrix(1 0 0 1 280.0063 158.5312)" fill="#29323C" font-family="'MyriadPro-Regular'" font-size="11.3006">11:45 a.m.</text>
		<text transform="matrix(1 0 0 1 280.0063 192.0938)" fill="#29323C" font-family="'MyriadPro-Regular'" font-size="11.3006">11:30 a.m.</text>
		<text transform="matrix(1 0 0 1 280.0063 225.6562)" fill="#29323C" font-family="'MyriadPro-Regular'" font-size="11.3006">10:00 a.m.</text>
	</g>
</g>
<circle fill="#FFFFFF" cx="104.5" cy="122" r="51.7"/>
<text transform="matrix(1 0 0 1 71.8516 137.001)" fill="#27A8E0" font-family="'MyriadPro-Regular'" font-size="37.3984">64%</text>
</svg>
