<?xml version="1.0" encoding="utf-8"?>
<!-- Generator: Adobe Illustrator 16.0.0, SVG Export Plug-In . SVG Version: 6.00 Build 0)  -->
<!DOCTYPE svg PUBLIC "-//W3C//DTD SVG 1.1//EN" "http://www.w3.org/Graphics/SVG/1.1/DTD/svg11.dtd">
<svg version="1.1" id="Layer_1" xmlns="http://www.w3.org/2000/svg" xmlns:xlink="http://www.w3.org/1999/xlink" x="0px" y="0px"
	 width="331.3px" height="224px" viewBox="0 0 331.3 224" enable-background="new 0 0 331.3 224" xml:space="preserve">
<g>
	<g>
		<g>
			<rect x="246.1" y="8.9" fill="#27A8E0" width="30.101" height="22.4"/>
			<g>
				<path fill="#27A8E0" d="M106.5,120.7l88-42.9C218.201,126.4,198,185,149.4,208.7c-48.6,23.7-107.2,3.5-130.9-45.101
					C-5.2,115.1,15,56.4,63.6,32.7c13.5-6.6,27.9-9.9,42.9-9.9V120.7z"/>
			</g>
		</g>
		<g>
			<rect x="246.1" y="42.4" fill="#DFDFDF" width="30.101" height="22.4"/>
			<g>
				<path fill="#DFDFDF" d="M106.5,120.7L126.9,25c30.6,6.5,53.9,24.8,67.6,52.8L106.5,120.7z"/>
			</g>
		</g>
		<g>
			<rect x="246.1" y="76" width="30.101" height="22.4"/>
			<g>
				<path stroke="#303030" stroke-width="0.5" stroke-miterlimit="10" d="M106.5,120.7V22.8c7.7,0,12.8,0.5,20.4,2.1L106.5,120.7z"
					/>
			</g>
		</g>
	</g>
	<g>
		<text transform="matrix(1 0 0 1 280.0063 24.2793)" fill="#29323C" font-family="'MyriadPro-Regular'" font-size="11.3006">Just </text>
		<text transform="matrix(1 0 0 1 301.0063 24.2793)" fill="#29323C" font-family="'MyriadPro-Regular'" font-size="11.3006">R</text>
		<text transform="matrix(1 0 0 1 307.2065 24.2793)" fill="#29323C" font-family="'MyriadPro-Regular'" font-size="11.3006">ig</text>
		<text transform="matrix(1 0 0 1 316.2065 24.2793)" fill="#29323C" font-family="'MyriadPro-Regular'" font-size="11.3006">h</text>
		<text transform="matrix(1 0 0 1 322.4058 24.2793)" fill="#29323C" font-family="'MyriadPro-Regular'" font-size="11.3006">t</text>
		<text transform="matrix(1 0 0 1 280.0063 57.8428)" fill="#29323C" font-family="'MyriadPro-Regular'" font-size="11.3006">T</text>
		<text transform="matrix(1 0 0 1 284.8062 57.8428)" fill="#29323C" font-family="'MyriadPro-Regular'" font-size="11.3006">oo </text>
		<text transform="matrix(1 0 0 1 299.6069 57.8428)" fill="#29323C" font-family="'MyriadPro-Regular'" font-size="11.3006">L</text>
		<text transform="matrix(1 0 0 1 304.8062 57.8428)" fill="#29323C" font-family="'MyriadPro-Regular'" font-size="11.3006">ong</text>
		<text transform="matrix(1 0 0 1 280.0063 91.4062)" fill="#29323C" font-family="'MyriadPro-Regular'" font-size="11.3006">T</text>
		<text transform="matrix(1 0 0 1 284.8062 91.4062)" fill="#29323C" font-family="'MyriadPro-Regular'" font-size="11.3006">oo Sho</text>
		<text transform="matrix(1 0 0 1 317.7065 91.4062)" fill="#29323C" font-family="'MyriadPro-Regular'" font-size="11.3006">r</text>
		<text transform="matrix(1 0 0 1 321.6069 91.4062)" fill="#29323C" font-family="'MyriadPro-Regular'" font-size="11.3006">t</text>
	</g>
</g>
<circle fill="#FFFFFF" cx="104.9" cy="121.3" r="51.7"/>
<text transform="matrix(1 0 0 1 71.3335 132.9229)" fill="#27A8E0" font-family="'MyriadPro-Regular'" font-size="37.3984">82%</text>
</svg>
