<?xml version="1.0" encoding="utf-8"?>
<!-- Generator: Adobe Illustrator 16.0.0, SVG Export Plug-In . SVG Version: 6.00 Build 0)  -->
<!DOCTYPE svg PUBLIC "-//W3C//DTD SVG 1.1//EN" "http://www.w3.org/Graphics/SVG/1.1/DTD/svg11.dtd">
<svg version="1.1" id="Layer_1" xmlns="http://www.w3.org/2000/svg" xmlns:xlink="http://www.w3.org/1999/xlink" x="0px" y="0px"
	 width="331.3px" height="224px" viewBox="0 0 331.3 224" enable-background="new 0 0 331.3 224" xml:space="preserve">
<g>
	<g>
		<g>
			
				<rect x="246.1" y="8.9" fill="#404040" stroke="#000000" stroke-width="0.5" stroke-miterlimit="10" width="30.101" height="22.4"/>
			<g>
				<path fill="#404040" stroke="#000000" stroke-width="0.5" stroke-miterlimit="10" d="M106.5,120.7l-22-95.4
					c7.5-1.7,14.3-2.5,22-2.5V120.7z"/>
			</g>
		</g>
		<g>
			<rect x="246.1" y="42.4" width="30.101" height="22.4"/>
			<g>
				<path stroke="#303030" stroke-width="0.5" stroke-miterlimit="10" d="M106.5,120.7L17.8,79.4c13-28,36.6-47.1,66.7-54
					L106.5,120.7z"/>
			</g>
		</g>
		<g>
			<rect x="246.1" y="76" fill="#DFDFDF" width="30.101" height="22.4"/>
			<g>
				<path fill="#DFDFDF" d="M106.5,120.7l-88,42.899C5,135.9,4.7,107.3,17.8,79.4L106.5,120.7z"/>
			</g>
		</g>
		<g>
			<rect x="246.1" y="109.5" fill="#27A8E0" width="30.101" height="22.4"/>
			<g>
				<path fill="#27A8E0" d="M106.5,120.7V22.8c54.1,0,97.9,43.8,97.9,97.9c0,54.1-43.8,97.899-97.9,97.899c-38.6,0-71.1-20.3-88-55
					L106.5,120.7z"/>
			</g>
		</g>
	</g>
	<g>
		<text transform="matrix(1 0 0 1 280.0063 24.2793)" fill="#29323C" font-family="'MyriadPro-Regular'" font-size="11.3006">O</text>
		<text transform="matrix(1 0 0 1 288.0063 24.2793)" fill="#29323C" font-family="'MyriadPro-Regular'" font-size="11.3006">ther</text>
		<text transform="matrix(1 0 0 1 280.0063 57.8428)" fill="#29323C" font-family="'MyriadPro-Regular'" font-size="11.3006">M</text>
		<text transform="matrix(1 0 0 1 289.2065 57.8428)" fill="#29323C" font-family="'MyriadPro-Regular'" font-size="11.3006">o</text>
		<text transform="matrix(1 0 0 1 295.4058 57.8428)" fill="#29323C" font-family="'MyriadPro-Regular'" font-size="11.3006">n</text>
		<text transform="matrix(1 0 0 1 301.6069 57.8428)" fill="#29323C" font-family="'MyriadPro-Regular'" font-size="11.3006">thly</text>
		<text transform="matrix(1 0 0 1 280.0063 91.4062)" fill="#29323C" font-family="'MyriadPro-Regular'" font-size="11.3006">Bi</text>
		<text transform="matrix(1 0 0 1 288.8062 91.4062)" fill="#29323C" font-family="'MyriadPro-Regular'" font-size="11.3006">-</text>
		<text transform="matrix(1 0 0 1 292.1069 91.4062)" fill="#29323C" font-family="'MyriadPro-Regular'" font-size="11.3006">W</text>
		<text transform="matrix(1 0 0 1 301.3062 91.4062)" fill="#29323C" font-family="'MyriadPro-Regular'" font-size="11.3006">ee</text>
		<text transform="matrix(1 0 0 1 312.6069 91.4062)" fill="#29323C" font-family="'MyriadPro-Regular'" font-size="11.3006">k</text>
		<text transform="matrix(1 0 0 1 318.1069 91.4062)" fill="#29323C" font-family="'MyriadPro-Regular'" font-size="11.3006">ly</text>
		<text transform="matrix(1 0 0 1 280.0063 124.9688)" fill="#29323C" font-family="'MyriadPro-Regular'" font-size="11.3006">W</text>
		<text transform="matrix(1 0 0 1 289.2065 124.9688)" fill="#29323C" font-family="'MyriadPro-Regular'" font-size="11.3006">ee</text>
		<text transform="matrix(1 0 0 1 300.5063 124.9688)" fill="#29323C" font-family="'MyriadPro-Regular'" font-size="11.3006">k</text>
		<text transform="matrix(1 0 0 1 306.0063 124.9688)" fill="#29323C" font-family="'MyriadPro-Regular'" font-size="11.3006">ly</text>
	</g>
</g>
<circle fill="#FFFFFF" cx="104.9" cy="121.3" r="51.7"/>
<text transform="matrix(1 0 0 1 71.3335 132.9229)" fill="#27A8E0" font-family="'MyriadPro-Regular'" font-size="37.3984">68%</text>
</svg>
